<svg width="26" height="26" viewBox="0 0 26 26" fill="none" xmlns="http://www.w3.org/2000/svg">
<path d="M23.5636 9.38311L20.3717 12.5798C19.4597 13.4932 18.2133 14.0107 16.9061 14.0107C16.2069 14.0107 15.5077 13.8585 14.8998 13.5845L16.1157 12.3667C16.3893 12.4276 16.6325 12.4885 16.9061 12.4885C17.7877 12.4885 18.6389 12.1536 19.2773 11.5143L22.4692 8.31753C23.7764 7.0084 23.7764 4.87725 22.4692 3.56812C21.8308 2.92878 20.9797 2.59388 20.0981 2.59388C19.2165 2.59388 18.3653 2.92878 17.7269 3.56812L14.535 6.7344C13.6838 7.58685 13.3798 8.80465 13.6534 9.90067L12.4374 11.1185C11.6166 9.32222 11.951 7.09974 13.4406 5.63838L16.6325 2.44166C17.5445 1.52831 18.7909 1.01074 20.0981 1.01074C21.4053 1.01074 22.6516 1.52831 23.5636 2.44166C25.4788 4.35969 25.4788 7.46507 23.5636 9.38311Z" fill="white" stroke="white" stroke-width="0.4" stroke-miterlimit="10"/>
<path d="M12.2994 16.116C12.5663 17.2167 12.2994 18.4364 11.4393 19.2991L8.23633 22.4821C7.61353 23.1069 6.75348 23.4638 5.86376 23.4638C4.97405 23.4638 4.114 23.1069 3.4912 22.4821C2.18628 21.1732 2.18628 19.0313 3.4912 17.7224L6.66451 14.5393C7.2873 13.9146 8.14736 13.5577 9.03707 13.5577C9.30399 13.5577 9.5709 13.5874 9.83782 13.6766L11.0538 12.457C10.431 12.1595 9.74884 12.0107 9.03707 12.0107C7.73216 12.0107 6.48656 12.5165 5.56719 13.4387L2.42354 16.6217C0.525486 18.5256 0.525486 21.6492 2.42354 23.5828C3.34291 24.505 4.58851 25.0107 5.89342 25.0107C7.19833 25.0107 8.44393 24.505 9.3633 23.5828L12.5663 20.3998C14.0491 18.9123 14.3754 16.711 13.5746 14.8963L12.2994 16.116Z" fill="white" stroke="white" stroke-width="0.4" stroke-miterlimit="10"/>
<path d="M8.21262 17.7849C8.35436 17.9261 8.5528 18.0107 8.75124 18.0107C8.94968 18.0107 9.14812 17.9261 9.28987 17.7849L17.7661 9.34455C18.078 9.03403 18.078 8.55414 17.7661 8.24363C17.4543 7.93311 16.9724 7.93311 16.6605 8.24363L8.21262 16.7122C7.92913 16.9945 7.92913 17.4744 8.21262 17.7849Z" fill="white"/>
</svg>
