<svg width="28" height="29" viewBox="0 0 28 29" fill="none" xmlns="http://www.w3.org/2000/svg">
<path d="M-0.000970334 14.7749C-0.00409366 18.0578 1.16746 21.2334 3.30188 23.7277L9.16957 17.854C8.65089 17.0754 8.3373 16.1784 8.25791 15.2463C8.17852 14.3142 8.33591 13.3771 8.71546 12.5221C9.09501 11.667 9.68443 10.9217 10.429 10.3553C11.1736 9.78894 12.5737 9.41984 13.499 9.28229V1.00098C9.98865 1.2121 6.16668 2.75504 3.75529 5.31483C1.3439 7.87461 0.000391811 11.2582 -0.000970334 14.7749Z" fill="#A1BBFF"/>
<path d="M19.1382 16.2031C18.8214 17.3843 18.1241 18.4282 17.154 19.1729C16.184 19.9177 14.9955 20.3217 13.7725 20.3226C12.6978 20.3252 11.646 20.0118 10.748 19.4213L4.86816 25.3071C6.7825 26.9357 9.10562 28.01 11.5863 28.4137C14.067 28.8175 16.6109 28.5354 18.9429 27.598C21.2749 26.6606 23.3062 25.1036 24.8173 23.0952C26.3284 21.0868 27.2617 18.7035 27.5163 16.2031H19.1382Z" fill="white"/>
<path d="M15.499 0.893555V9.50125C16.4049 9.89224 17.6917 10.6091 18.2841 11.3782C18.8766 12.1473 19.2548 13.0505 19.3825 14.0013H27.999C27.832 10.837 26.551 7.82284 24.3685 5.45848C22.1861 3.09412 18.7331 1.4138 15.499 0.893555Z" fill="#3B6BE6"/>
</svg>
