<svg width="380" height="508" viewBox="0 0 380 508" fill="none" xmlns="http://www.w3.org/2000/svg">
<rect width="380" height="508" fill="#7841BA"/>
<path d="M380 7.60191H171.053C171.153 9.17988 168.634 1.99094 171.053 14.8863C191.072 121.606 284.51 197.889 299.805 305.074C305.312 343.103 326.866 366.584 318.957 411.083C313.011 445.087 287.265 470.738 296.702 508C300.706 508 373.492 508 379.7 508C379.9 501.057 380 17.0697 380 7.60191Z" fill="#6738A1"/>
<rect x="38" y="50" width="304" height="425" rx="13" fill="white"/>
<path d="M155.044 72.28L152.812 72.964C152.728 72.508 152.5 72.094 152.128 71.722C151.756 71.35 151.21 71.164 150.49 71.164C149.902 71.164 149.422 71.326 149.05 71.65C148.678 71.962 148.492 72.34 148.492 72.784C148.492 73.564 148.954 74.044 149.878 74.224L151.66 74.566C152.788 74.782 153.664 75.232 154.288 75.916C154.912 76.6 155.224 77.404 155.224 78.328C155.224 79.384 154.804 80.308 153.964 81.1C153.136 81.88 152.02 82.27 150.616 82.27C149.812 82.27 149.086 82.15 148.438 81.91C147.79 81.67 147.268 81.352 146.872 80.956C146.476 80.548 146.164 80.122 145.936 79.678C145.72 79.222 145.588 78.754 145.54 78.274L147.844 77.662C147.904 78.346 148.168 78.916 148.636 79.372C149.116 79.828 149.782 80.056 150.634 80.056C151.282 80.056 151.786 79.912 152.146 79.624C152.518 79.336 152.704 78.958 152.704 78.49C152.704 78.118 152.566 77.8 152.29 77.536C152.026 77.26 151.648 77.074 151.156 76.978L149.374 76.618C148.342 76.402 147.526 75.976 146.926 75.34C146.326 74.704 146.026 73.912 146.026 72.964C146.026 71.836 146.458 70.888 147.322 70.12C148.198 69.352 149.248 68.968 150.472 68.968C151.204 68.968 151.858 69.07 152.434 69.274C153.01 69.478 153.472 69.754 153.82 70.102C154.168 70.438 154.438 70.786 154.63 71.146C154.822 71.506 154.96 71.884 155.044 72.28ZM160.541 70.498V73.144H162.323V75.268H160.541V78.976C160.541 79.348 160.625 79.612 160.793 79.768C160.961 79.924 161.225 80.002 161.585 80.002C161.909 80.002 162.155 79.978 162.323 79.93V81.91C161.975 82.054 161.525 82.126 160.973 82.126C160.109 82.126 159.425 81.886 158.921 81.406C158.417 80.914 158.165 80.242 158.165 79.39V75.268H156.563V73.144H157.013C157.457 73.144 157.793 73.018 158.021 72.766C158.261 72.502 158.381 72.16 158.381 71.74V70.498H160.541ZM169.994 73.108V75.52C169.754 75.472 169.514 75.448 169.274 75.448C168.59 75.448 168.038 75.646 167.618 76.042C167.198 76.426 166.988 77.062 166.988 77.95V82H164.594V73.144H166.916V74.458C167.348 73.534 168.188 73.072 169.436 73.072C169.568 73.072 169.754 73.084 169.994 73.108ZM171.55 79.588C171.55 78.832 171.796 78.226 172.288 77.77C172.78 77.314 173.416 77.026 174.196 76.906L176.374 76.582C176.818 76.522 177.04 76.312 177.04 75.952C177.04 75.616 176.908 75.34 176.644 75.124C176.392 74.908 176.026 74.8 175.546 74.8C175.042 74.8 174.64 74.938 174.34 75.214C174.052 75.49 173.89 75.832 173.854 76.24L171.73 75.79C171.814 75.022 172.192 74.344 172.864 73.756C173.536 73.168 174.424 72.874 175.528 72.874C176.848 72.874 177.82 73.192 178.444 73.828C179.068 74.452 179.38 75.256 179.38 76.24V80.596C179.38 81.124 179.416 81.592 179.488 82H177.292C177.232 81.736 177.202 81.382 177.202 80.938C176.638 81.814 175.768 82.252 174.592 82.252C173.68 82.252 172.942 81.988 172.378 81.46C171.826 80.932 171.55 80.308 171.55 79.588ZM175.096 80.47C175.66 80.47 176.122 80.314 176.482 80.002C176.854 79.678 177.04 79.15 177.04 78.418V78.022L175.042 78.328C174.31 78.436 173.944 78.808 173.944 79.444C173.944 79.732 174.046 79.978 174.25 80.182C174.454 80.374 174.736 80.47 175.096 80.47ZM187.07 73.144H189.59L191.498 78.85L193.136 73.144H195.512L192.74 82H190.346L188.276 75.952L186.242 82H183.812L180.986 73.144H183.506L185.144 78.832L187.07 73.144ZM204.856 75.052H206.818C207.43 75.052 207.916 74.89 208.276 74.566C208.636 74.23 208.816 73.786 208.816 73.234C208.816 72.67 208.636 72.226 208.276 71.902C207.928 71.566 207.442 71.398 206.818 71.398H204.856V75.052ZM207.124 77.194H204.838V82H202.354V69.238H207.124C208.372 69.238 209.38 69.61 210.148 70.354C210.928 71.098 211.318 72.052 211.318 73.216C211.318 74.38 210.928 75.334 210.148 76.078C209.38 76.822 208.372 77.194 207.124 77.194ZM215.264 79.426C215.708 79.87 216.242 80.092 216.866 80.092C217.49 80.092 218.018 79.87 218.45 79.426C218.894 78.982 219.116 78.364 219.116 77.572C219.116 76.78 218.894 76.162 218.45 75.718C218.018 75.274 217.49 75.052 216.866 75.052C216.242 75.052 215.708 75.274 215.264 75.718C214.832 76.162 214.616 76.78 214.616 77.572C214.616 78.364 214.832 78.982 215.264 79.426ZM213.536 74.206C214.424 73.318 215.534 72.874 216.866 72.874C218.198 72.874 219.302 73.318 220.178 74.206C221.066 75.094 221.51 76.216 221.51 77.572C221.51 78.928 221.066 80.05 220.178 80.938C219.302 81.826 218.198 82.27 216.866 82.27C215.534 82.27 214.424 81.826 213.536 80.938C212.66 80.05 212.222 78.928 212.222 77.572C212.222 76.216 212.66 75.094 213.536 74.206ZM226.154 82H223.76V68.968H226.154V82ZM231.471 82H229.077V68.968H231.471V82Z" fill="#2B3245"/>
<line x1="62" y1="97.5" x2="318" y2="97.5" stroke="#603495"/>
<path d="M65.333 122H64.035V117.116H62.308V116.214C62.8067 116.207 63.2247 116.078 63.562 115.829C63.8993 115.572 64.1083 115.253 64.189 114.872H65.333V122ZM67.2598 121.813C67.0911 121.637 67.0068 121.424 67.0068 121.175C67.0068 120.926 67.0911 120.713 67.2598 120.537C67.4358 120.361 67.6485 120.273 67.8978 120.273C68.1471 120.273 68.3598 120.361 68.5358 120.537C68.7118 120.713 68.7998 120.926 68.7998 121.175C68.7998 121.424 68.7118 121.637 68.5358 121.813C68.3598 121.982 68.1471 122.066 67.8978 122.066C67.6485 122.066 67.4358 121.982 67.2598 121.813ZM80.8442 119.943L82.3732 114.201H83.7372L81.5482 122H80.1842L78.2922 116.104L76.4002 122H75.0472L72.8362 114.201H74.2222L75.7842 119.899L77.6102 114.201H78.9852L80.8442 119.943ZM86.1968 118.854V122H84.9208V114.036H86.1968V117.16C86.5415 116.713 87.0512 116.489 87.7258 116.489C88.3565 116.489 88.8405 116.687 89.1778 117.083C89.5152 117.479 89.6838 117.989 89.6838 118.612V122H88.4078V118.832C88.4078 118.473 88.3198 118.187 88.1438 117.974C87.9678 117.754 87.6892 117.644 87.3078 117.644C86.9705 117.644 86.7028 117.758 86.5048 117.985C86.3142 118.212 86.2115 118.502 86.1968 118.854ZM92.7442 120.57C93.0376 120.871 93.3932 121.021 93.8112 121.021C94.2292 121.021 94.5812 120.871 94.8672 120.57C95.1606 120.269 95.3072 119.851 95.3072 119.316C95.3072 118.788 95.1606 118.377 94.8672 118.084C94.5812 117.783 94.2292 117.633 93.8112 117.633C93.3932 117.633 93.0376 117.783 92.7442 118.084C92.4582 118.377 92.3152 118.788 92.3152 119.316C92.3152 119.844 92.4582 120.262 92.7442 120.57ZM93.8112 116.478C94.6179 116.478 95.2816 116.746 95.8022 117.281C96.3302 117.816 96.5942 118.495 96.5942 119.316C96.5942 120.137 96.3302 120.819 95.8022 121.362C95.2816 121.897 94.6179 122.165 93.8112 122.165C93.0119 122.165 92.3482 121.897 91.8202 121.362C91.2996 120.819 91.0392 120.137 91.0392 119.316C91.0392 118.495 91.2996 117.816 91.8202 117.281C92.3482 116.746 93.0119 116.478 93.8112 116.478ZM100.666 120.548C100.666 120.093 100.813 119.73 101.106 119.459C101.407 119.18 101.799 119.004 102.283 118.931L103.658 118.722C103.922 118.685 104.054 118.557 104.054 118.337C104.054 118.095 103.97 117.901 103.801 117.754C103.632 117.6 103.379 117.523 103.042 117.523C102.719 117.523 102.463 117.615 102.272 117.798C102.081 117.974 101.971 118.205 101.942 118.491L100.776 118.227C100.827 117.743 101.058 117.332 101.469 116.995C101.88 116.65 102.4 116.478 103.031 116.478C103.808 116.478 104.38 116.665 104.747 117.039C105.121 117.413 105.308 117.893 105.308 118.48V121.142C105.308 121.494 105.33 121.78 105.374 122H104.186C104.149 121.89 104.131 121.663 104.131 121.318C103.779 121.883 103.229 122.165 102.481 122.165C101.938 122.165 101.498 122.007 101.161 121.692C100.831 121.369 100.666 120.988 100.666 120.548ZM102.723 121.164C103.119 121.164 103.438 121.058 103.68 120.845C103.929 120.625 104.054 120.269 104.054 119.778V119.536L102.657 119.745C102.18 119.826 101.942 120.068 101.942 120.471C101.942 120.662 102.012 120.827 102.151 120.966C102.29 121.098 102.481 121.164 102.723 121.164ZM110.205 116.61V117.908C110.059 117.886 109.919 117.875 109.787 117.875C108.827 117.875 108.346 118.399 108.346 119.448V122H107.07V116.643H108.313V117.501C108.438 117.215 108.64 116.991 108.918 116.83C109.197 116.661 109.512 116.577 109.864 116.577C109.982 116.577 110.095 116.588 110.205 116.61ZM112.328 118.733H114.957C114.942 118.396 114.821 118.113 114.594 117.886C114.374 117.659 114.055 117.545 113.637 117.545C113.256 117.545 112.948 117.666 112.713 117.908C112.478 118.143 112.35 118.418 112.328 118.733ZM115.1 120.13L116.178 120.471C116.024 120.962 115.734 121.369 115.309 121.692C114.891 122.007 114.374 122.165 113.758 122.165C112.995 122.165 112.346 121.905 111.811 121.384C111.283 120.863 111.019 120.167 111.019 119.294C111.019 118.473 111.276 117.798 111.789 117.27C112.31 116.742 112.922 116.478 113.626 116.478C114.447 116.478 115.089 116.731 115.551 117.237C116.013 117.736 116.244 118.41 116.244 119.261C116.244 119.488 116.233 119.624 116.211 119.668H112.295C112.31 120.071 112.456 120.405 112.735 120.669C113.021 120.933 113.362 121.065 113.758 121.065C114.447 121.065 114.895 120.753 115.1 120.13ZM122.26 124.167H120.896L122.183 121.362L119.895 116.643H121.336L122.876 120.031L124.317 116.643H125.67L122.26 124.167ZM127.864 120.57C128.158 120.871 128.513 121.021 128.931 121.021C129.349 121.021 129.701 120.871 129.987 120.57C130.281 120.269 130.427 119.851 130.427 119.316C130.427 118.788 130.281 118.377 129.987 118.084C129.701 117.783 129.349 117.633 128.931 117.633C128.513 117.633 128.158 117.783 127.864 118.084C127.578 118.377 127.435 118.788 127.435 119.316C127.435 119.844 127.578 120.262 127.864 120.57ZM128.931 116.478C129.738 116.478 130.402 116.746 130.922 117.281C131.45 117.816 131.714 118.495 131.714 119.316C131.714 120.137 131.45 120.819 130.922 121.362C130.402 121.897 129.738 122.165 128.931 122.165C128.132 122.165 127.468 121.897 126.94 121.362C126.42 120.819 126.159 120.137 126.159 119.316C126.159 118.495 126.42 117.816 126.94 117.281C127.468 116.746 128.132 116.478 128.931 116.478ZM136.622 121.406C136.498 121.641 136.292 121.824 136.006 121.956C135.728 122.088 135.427 122.154 135.104 122.154C134.481 122.154 133.986 121.952 133.619 121.549C133.26 121.146 133.08 120.636 133.08 120.02V116.643H134.356V119.789C134.356 120.148 134.444 120.442 134.62 120.669C134.796 120.896 135.068 121.01 135.434 121.01C135.794 121.01 136.069 120.9 136.259 120.68C136.457 120.46 136.556 120.17 136.556 119.811V116.643H137.832V121.021C137.832 121.344 137.851 121.67 137.887 122H136.666C136.637 121.839 136.622 121.641 136.622 121.406ZM147.492 116.643L145.391 122H144.115L141.937 116.643H143.345L144.764 120.471L146.15 116.643H147.492ZM149.778 120.57C150.071 120.871 150.427 121.021 150.845 121.021C151.263 121.021 151.615 120.871 151.901 120.57C152.194 120.269 152.341 119.851 152.341 119.316C152.341 118.788 152.194 118.377 151.901 118.084C151.615 117.783 151.263 117.633 150.845 117.633C150.427 117.633 150.071 117.783 149.778 118.084C149.492 118.377 149.349 118.788 149.349 119.316C149.349 119.844 149.492 120.262 149.778 120.57ZM150.845 116.478C151.651 116.478 152.315 116.746 152.836 117.281C153.364 117.816 153.628 118.495 153.628 119.316C153.628 120.137 153.364 120.819 152.836 121.362C152.315 121.897 151.651 122.165 150.845 122.165C150.045 122.165 149.382 121.897 148.854 121.362C148.333 120.819 148.073 120.137 148.073 119.316C148.073 118.495 148.333 117.816 148.854 117.281C149.382 116.746 150.045 116.478 150.845 116.478ZM156.665 115.004V116.643H157.776V117.776H156.665V120.262C156.665 120.497 156.72 120.669 156.83 120.779C156.94 120.882 157.113 120.933 157.347 120.933C157.494 120.933 157.641 120.918 157.787 120.889V121.945C157.597 122.026 157.336 122.066 157.006 122.066C156.508 122.066 156.115 121.927 155.829 121.648C155.543 121.362 155.4 120.97 155.4 120.471V117.776H154.41V116.643H154.685C154.957 116.643 155.162 116.566 155.301 116.412C155.441 116.258 155.51 116.056 155.51 115.807V115.004H156.665ZM160.572 122H159.307V116.643H160.572V122ZM159.351 115.345C159.19 115.184 159.109 114.989 159.109 114.762C159.109 114.535 159.19 114.34 159.351 114.179C159.513 114.01 159.707 113.926 159.934 113.926C160.169 113.926 160.367 114.007 160.528 114.168C160.69 114.329 160.77 114.527 160.77 114.762C160.77 114.989 160.69 115.184 160.528 115.345C160.367 115.506 160.169 115.587 159.934 115.587C159.707 115.587 159.513 115.506 159.351 115.345ZM163.715 118.909V122H162.439V116.643H163.682V117.358C163.85 117.065 164.074 116.848 164.353 116.709C164.639 116.562 164.943 116.489 165.266 116.489C165.896 116.489 166.377 116.687 166.707 117.083C167.037 117.479 167.202 117.989 167.202 118.612V122H165.926V118.832C165.926 118.473 165.838 118.187 165.662 117.974C165.486 117.754 165.207 117.644 164.826 117.644C164.474 117.644 164.199 117.765 164.001 118.007C163.81 118.242 163.715 118.542 163.715 118.909ZM168.59 122.297L169.767 121.989C169.811 122.326 169.954 122.601 170.196 122.814C170.445 123.034 170.75 123.144 171.109 123.144C172.121 123.144 172.627 122.609 172.627 121.538V120.977C172.502 121.204 172.304 121.391 172.033 121.538C171.762 121.685 171.443 121.758 171.076 121.758C170.357 121.758 169.763 121.512 169.294 121.021C168.832 120.53 168.601 119.906 168.601 119.151C168.601 118.425 168.832 117.809 169.294 117.303C169.756 116.797 170.35 116.544 171.076 116.544C171.861 116.544 172.389 116.804 172.66 117.325V116.643H173.892V121.494C173.892 122.286 173.668 122.942 173.221 123.463C172.774 123.991 172.081 124.255 171.142 124.255C170.453 124.255 169.873 124.068 169.404 123.694C168.935 123.32 168.663 122.854 168.59 122.297ZM171.285 120.669C171.696 120.669 172.026 120.533 172.275 120.262C172.532 119.983 172.66 119.613 172.66 119.151C172.66 118.696 172.532 118.333 172.275 118.062C172.018 117.783 171.688 117.644 171.285 117.644C170.874 117.644 170.537 117.783 170.273 118.062C170.016 118.333 169.888 118.696 169.888 119.151C169.888 119.613 170.016 119.983 170.273 120.262C170.53 120.533 170.867 120.669 171.285 120.669ZM180.997 115.125C180.784 115.125 180.597 115.187 180.436 115.312C180.282 115.429 180.205 115.638 180.205 115.939V116.643H181.448V117.754H180.205V122H178.918V117.754H177.983V116.643H178.918V115.906C178.918 115.312 179.09 114.843 179.435 114.498C179.78 114.153 180.231 113.981 180.788 113.981C181.089 113.981 181.312 114.018 181.459 114.091V115.18C181.327 115.143 181.173 115.125 180.997 115.125ZM183.813 120.57C184.106 120.871 184.462 121.021 184.88 121.021C185.298 121.021 185.65 120.871 185.936 120.57C186.229 120.269 186.376 119.851 186.376 119.316C186.376 118.788 186.229 118.377 185.936 118.084C185.65 117.783 185.298 117.633 184.88 117.633C184.462 117.633 184.106 117.783 183.813 118.084C183.527 118.377 183.384 118.788 183.384 119.316C183.384 119.844 183.527 120.262 183.813 120.57ZM184.88 116.478C185.686 116.478 186.35 116.746 186.871 117.281C187.399 117.816 187.663 118.495 187.663 119.316C187.663 120.137 187.399 120.819 186.871 121.362C186.35 121.897 185.686 122.165 184.88 122.165C184.08 122.165 183.417 121.897 182.889 121.362C182.368 120.819 182.108 120.137 182.108 119.316C182.108 118.495 182.368 117.816 182.889 117.281C183.417 116.746 184.08 116.478 184.88 116.478ZM192.251 116.61V117.908C192.104 117.886 191.965 117.875 191.833 117.875C190.872 117.875 190.392 118.399 190.392 119.448V122H189.116V116.643H190.359V117.501C190.483 117.215 190.685 116.991 190.964 116.83C191.242 116.661 191.558 116.577 191.91 116.577C192.027 116.577 192.141 116.588 192.251 116.61ZM198.883 119.69H197.783C197.768 119.499 197.761 119.36 197.761 119.272C197.761 118.597 198.058 118.044 198.652 117.611L199.158 117.248C199.503 116.999 199.675 116.68 199.675 116.291C199.675 115.983 199.572 115.723 199.367 115.51C199.162 115.29 198.868 115.18 198.487 115.18C198.098 115.18 197.794 115.305 197.574 115.554C197.354 115.803 197.244 116.097 197.244 116.434C197.244 116.639 197.266 116.804 197.31 116.929L196.067 116.841C196.023 116.687 196.001 116.518 196.001 116.335C196.001 115.734 196.221 115.202 196.661 114.74C197.101 114.271 197.71 114.036 198.487 114.036C199.264 114.036 199.877 114.252 200.324 114.685C200.771 115.118 200.995 115.635 200.995 116.236C200.995 117.006 200.628 117.651 199.895 118.172L199.422 118.502C199.055 118.759 198.872 119.107 198.872 119.547C198.872 119.598 198.876 119.646 198.883 119.69ZM197.772 121.846C197.618 121.685 197.541 121.494 197.541 121.274C197.541 121.054 197.618 120.863 197.772 120.702C197.933 120.541 198.124 120.46 198.344 120.46C198.564 120.46 198.751 120.541 198.905 120.702C199.066 120.863 199.147 121.054 199.147 121.274C199.147 121.494 199.066 121.685 198.905 121.846C198.751 122 198.564 122.077 198.344 122.077C198.117 122.077 197.926 122 197.772 121.846Z" fill="#2B3245"/>
<path d="M86.22 147.679V147.173L87.298 146.931V147.668C87.298 148.167 87.419 148.541 87.661 148.79C87.903 149.039 88.2293 149.164 88.64 149.164C89.036 149.164 89.3477 149.039 89.575 148.79C89.8023 148.541 89.916 148.192 89.916 147.745V142.201H90.994V147.668C90.994 148.372 90.7777 148.966 90.345 149.45C89.9197 149.927 89.355 150.165 88.651 150.165C87.8957 150.165 87.3017 149.941 86.869 149.494C86.4363 149.039 86.22 148.434 86.22 147.679ZM94.0113 148.746C94.3339 149.076 94.7263 149.241 95.1883 149.241C95.6503 149.241 96.0389 149.076 96.3543 148.746C96.6769 148.409 96.8383 147.943 96.8383 147.349C96.8383 146.762 96.6769 146.304 96.3543 145.974C96.0389 145.637 95.6503 145.468 95.1883 145.468C94.7263 145.468 94.3339 145.637 94.0113 145.974C93.6959 146.304 93.5383 146.762 93.5383 147.349C93.5383 147.943 93.6959 148.409 94.0113 148.746ZM93.2413 145.347C93.7546 144.812 94.4036 144.544 95.1883 144.544C95.9729 144.544 96.6183 144.812 97.1243 145.347C97.6376 145.875 97.8943 146.542 97.8943 147.349C97.8943 148.163 97.6413 148.838 97.1353 149.373C96.6293 149.901 95.9803 150.165 95.1883 150.165C94.3963 150.165 93.7473 149.901 93.2413 149.373C92.7353 148.838 92.4823 148.163 92.4823 147.349C92.4823 146.542 92.7353 145.875 93.2413 145.347ZM100.471 146.887V150H99.4372V142.036H100.471V145.325C100.823 144.812 101.359 144.555 102.077 144.555C102.686 144.555 103.152 144.749 103.474 145.138C103.804 145.527 103.969 146.029 103.969 146.645V150H102.935V146.821C102.935 145.934 102.525 145.49 101.703 145.49C101.322 145.49 101.025 145.622 100.812 145.886C100.6 146.143 100.486 146.476 100.471 146.887ZM106.868 146.942V150H105.834V144.709H106.846V145.468C107.198 144.859 107.741 144.555 108.474 144.555C109.083 144.555 109.548 144.749 109.871 145.138C110.201 145.527 110.366 146.029 110.366 146.645V150H109.332V146.821C109.332 145.934 108.921 145.49 108.1 145.49C107.711 145.49 107.407 145.629 107.187 145.908C106.974 146.179 106.868 146.524 106.868 146.942ZM116.389 149.043H117.984C118.746 149.043 119.377 148.79 119.876 148.284C120.382 147.778 120.635 147.056 120.635 146.117C120.635 145.171 120.385 144.441 119.887 143.928C119.395 143.415 118.768 143.158 118.006 143.158H116.389V149.043ZM118.017 150H115.311V142.201H118.039C119.087 142.201 119.967 142.549 120.679 143.246C121.39 143.935 121.746 144.892 121.746 146.117C121.746 147.334 121.386 148.288 120.668 148.977C119.949 149.659 119.065 150 118.017 150ZM124.427 148.746C124.749 149.076 125.142 149.241 125.604 149.241C126.066 149.241 126.454 149.076 126.77 148.746C127.092 148.409 127.254 147.943 127.254 147.349C127.254 146.762 127.092 146.304 126.77 145.974C126.454 145.637 126.066 145.468 125.604 145.468C125.142 145.468 124.749 145.637 124.427 145.974C124.111 146.304 123.954 146.762 123.954 147.349C123.954 147.943 124.111 148.409 124.427 148.746ZM123.657 145.347C124.17 144.812 124.819 144.544 125.604 144.544C126.388 144.544 127.034 144.812 127.54 145.347C128.053 145.875 128.31 146.542 128.31 147.349C128.31 148.163 128.057 148.838 127.551 149.373C127.045 149.901 126.396 150.165 125.604 150.165C124.812 150.165 124.163 149.901 123.657 149.373C123.151 148.838 122.898 148.163 122.898 147.349C122.898 146.542 123.151 145.875 123.657 145.347ZM130.524 146.81H133.417C133.402 146.414 133.27 146.091 133.021 145.842C132.771 145.585 132.419 145.457 131.965 145.457C131.554 145.457 131.217 145.593 130.953 145.864C130.689 146.128 130.546 146.443 130.524 146.81ZM133.571 148.185L134.462 148.493C134.308 148.984 134.022 149.388 133.604 149.703C133.186 150.011 132.68 150.165 132.086 150.165C131.345 150.165 130.714 149.912 130.194 149.406C129.68 148.893 129.424 148.203 129.424 147.338C129.424 146.531 129.673 145.864 130.172 145.336C130.67 144.808 131.264 144.544 131.954 144.544C132.753 144.544 133.376 144.797 133.824 145.303C134.271 145.802 134.495 146.473 134.495 147.316C134.495 147.448 134.487 147.558 134.473 147.646H130.491C130.498 148.115 130.652 148.5 130.953 148.801C131.261 149.102 131.638 149.252 132.086 149.252C132.841 149.252 133.336 148.896 133.571 148.185Z" fill="#2B3245"/>
<circle cx="70" cy="145" r="7.4" stroke="#603495" stroke-width="1.2"/>
<path d="M86.22 170.679V170.173L87.298 169.931V170.668C87.298 171.167 87.419 171.541 87.661 171.79C87.903 172.039 88.2293 172.164 88.64 172.164C89.036 172.164 89.3477 172.039 89.575 171.79C89.8023 171.541 89.916 171.192 89.916 170.745V165.201H90.994V170.668C90.994 171.372 90.7777 171.966 90.345 172.45C89.9197 172.927 89.355 173.165 88.651 173.165C87.8957 173.165 87.3017 172.941 86.869 172.494C86.4363 172.039 86.22 171.434 86.22 170.679ZM92.646 171.581C92.646 171.126 92.7926 170.763 93.086 170.492C93.3793 170.213 93.768 170.041 94.252 169.975L95.682 169.766C95.9533 169.729 96.089 169.597 96.089 169.37C96.089 169.091 95.9936 168.864 95.803 168.688C95.6123 168.512 95.3263 168.424 94.945 168.424C94.593 168.424 94.3143 168.523 94.109 168.721C93.9036 168.912 93.7826 169.168 93.746 169.491L92.756 169.26C92.8073 168.754 93.0383 168.343 93.449 168.028C93.8596 167.705 94.351 167.544 94.923 167.544C95.671 167.544 96.2246 167.727 96.584 168.094C96.9433 168.453 97.123 168.915 97.123 169.48V172.131C97.123 172.446 97.145 172.736 97.189 173H96.177C96.1403 172.78 96.122 172.542 96.122 172.285C95.9753 172.52 95.759 172.725 95.473 172.901C95.1943 173.077 94.8423 173.165 94.417 173.165C93.8963 173.165 93.471 173.011 93.141 172.703C92.811 172.388 92.646 172.014 92.646 171.581ZM94.56 172.296C95.022 172.296 95.3923 172.171 95.671 171.922C95.9496 171.673 96.089 171.277 96.089 170.734V170.492L94.472 170.734C94.2373 170.771 94.0503 170.855 93.911 170.987C93.7716 171.119 93.702 171.299 93.702 171.526C93.702 171.731 93.779 171.911 93.933 172.065C94.0943 172.219 94.3033 172.296 94.56 172.296ZM99.9878 169.942V173H98.9538V167.709H99.9658V168.468C100.318 167.859 100.86 167.555 101.594 167.555C102.202 167.555 102.668 167.749 102.991 168.138C103.321 168.527 103.486 169.029 103.486 169.645V173H102.452V169.821C102.452 168.934 102.041 168.49 101.22 168.49C100.831 168.49 100.527 168.629 100.307 168.908C100.094 169.179 99.9878 169.524 99.9878 169.942ZM106.022 169.81H108.915C108.9 169.414 108.768 169.091 108.519 168.842C108.269 168.585 107.917 168.457 107.463 168.457C107.052 168.457 106.715 168.593 106.451 168.864C106.187 169.128 106.044 169.443 106.022 169.81ZM109.069 171.185L109.96 171.493C109.806 171.984 109.52 172.388 109.102 172.703C108.684 173.011 108.178 173.165 107.584 173.165C106.843 173.165 106.212 172.912 105.692 172.406C105.178 171.893 104.922 171.203 104.922 170.338C104.922 169.531 105.171 168.864 105.67 168.336C106.168 167.808 106.762 167.544 107.452 167.544C108.251 167.544 108.874 167.797 109.322 168.303C109.769 168.802 109.993 169.473 109.993 170.316C109.993 170.448 109.985 170.558 109.971 170.646H105.989C105.996 171.115 106.15 171.5 106.451 171.801C106.759 172.102 107.136 172.252 107.584 172.252C108.339 172.252 108.834 171.896 109.069 171.185ZM115.69 172.043H117.285C118.048 172.043 118.679 171.79 119.177 171.284C119.683 170.778 119.936 170.056 119.936 169.117C119.936 168.171 119.687 167.441 119.188 166.928C118.697 166.415 118.07 166.158 117.307 166.158H115.69V172.043ZM117.318 173H114.612V165.201H117.34C118.389 165.201 119.269 165.549 119.98 166.246C120.692 166.935 121.047 167.892 121.047 169.117C121.047 170.334 120.688 171.288 119.969 171.977C119.251 172.659 118.367 173 117.318 173ZM123.728 171.746C124.051 172.076 124.443 172.241 124.905 172.241C125.367 172.241 125.756 172.076 126.071 171.746C126.394 171.409 126.555 170.943 126.555 170.349C126.555 169.762 126.394 169.304 126.071 168.974C125.756 168.637 125.367 168.468 124.905 168.468C124.443 168.468 124.051 168.637 123.728 168.974C123.413 169.304 123.255 169.762 123.255 170.349C123.255 170.943 123.413 171.409 123.728 171.746ZM122.958 168.347C123.472 167.812 124.121 167.544 124.905 167.544C125.69 167.544 126.335 167.812 126.841 168.347C127.355 168.875 127.611 169.542 127.611 170.349C127.611 171.163 127.358 171.838 126.852 172.373C126.346 172.901 125.697 173.165 124.905 173.165C124.113 173.165 123.464 172.901 122.958 172.373C122.452 171.838 122.199 171.163 122.199 170.349C122.199 169.542 122.452 168.875 122.958 168.347ZM129.825 169.81H132.718C132.704 169.414 132.572 169.091 132.322 168.842C132.073 168.585 131.721 168.457 131.266 168.457C130.856 168.457 130.518 168.593 130.254 168.864C129.99 169.128 129.847 169.443 129.825 169.81ZM132.872 171.185L133.763 171.493C133.609 171.984 133.323 172.388 132.905 172.703C132.487 173.011 131.981 173.165 131.387 173.165C130.647 173.165 130.016 172.912 129.495 172.406C128.982 171.893 128.725 171.203 128.725 170.338C128.725 169.531 128.975 168.864 129.473 168.336C129.972 167.808 130.566 167.544 131.255 167.544C132.055 167.544 132.678 167.797 133.125 168.303C133.573 168.802 133.796 169.473 133.796 170.316C133.796 170.448 133.789 170.558 133.774 170.646H129.792C129.8 171.115 129.954 171.5 130.254 171.801C130.562 172.102 130.94 172.252 131.387 172.252C132.143 172.252 132.638 171.896 132.872 171.185Z" fill="#2B3245"/>
<circle cx="70" cy="168" r="7.4" stroke="#603495" stroke-width="1.2"/>
<path d="M91.698 195.417C91.1773 195.916 90.5063 196.165 89.685 196.165C88.8637 196.165 88.189 195.916 87.661 195.417C87.1403 194.918 86.88 194.225 86.88 193.338V188.201H87.947V193.305C87.947 193.899 88.0973 194.357 88.398 194.68C88.706 195.003 89.135 195.164 89.685 195.164C90.235 195.164 90.6603 195.003 90.961 194.68C91.2617 194.357 91.412 193.899 91.412 193.305V188.201H92.49V193.338C92.49 194.225 92.226 194.918 91.698 195.417ZM95.4494 192.942V196H94.4154V190.709H95.4274V191.468C95.7794 190.859 96.3221 190.555 97.0554 190.555C97.6641 190.555 98.1298 190.749 98.4524 191.138C98.7824 191.527 98.9474 192.029 98.9474 192.645V196H97.9134V192.821C97.9134 191.934 97.5028 191.49 96.6814 191.49C96.2928 191.49 95.9884 191.629 95.7684 191.908C95.5558 192.179 95.4494 192.524 95.4494 192.942ZM100.317 194.625L101.252 194.295C101.289 194.581 101.414 194.819 101.626 195.01C101.839 195.193 102.125 195.285 102.484 195.285C102.763 195.285 102.983 195.219 103.144 195.087C103.306 194.948 103.386 194.779 103.386 194.581C103.386 194.229 103.159 194.002 102.704 193.899L101.802 193.701C101.392 193.613 101.069 193.437 100.834 193.173C100.6 192.909 100.482 192.59 100.482 192.216C100.482 191.761 100.666 191.369 101.032 191.039C101.406 190.709 101.85 190.544 102.363 190.544C102.701 190.544 103.001 190.595 103.265 190.698C103.529 190.793 103.735 190.922 103.881 191.083C104.028 191.244 104.138 191.395 104.211 191.534C104.285 191.673 104.34 191.816 104.376 191.963L103.463 192.304C103.449 192.216 103.423 192.132 103.386 192.051C103.35 191.963 103.291 191.868 103.21 191.765C103.137 191.662 103.027 191.582 102.88 191.523C102.734 191.457 102.561 191.424 102.363 191.424C102.107 191.424 101.894 191.494 101.725 191.633C101.564 191.772 101.483 191.937 101.483 192.128C101.483 192.465 101.685 192.678 102.088 192.766L102.946 192.953C103.416 193.056 103.775 193.246 104.024 193.525C104.281 193.796 104.409 194.13 104.409 194.526C104.409 194.944 104.237 195.322 103.892 195.659C103.555 195.996 103.082 196.165 102.473 196.165C101.821 196.165 101.311 196.004 100.944 195.681C100.578 195.351 100.369 194.999 100.317 194.625ZM109.439 195.362C109.3 195.626 109.087 195.828 108.801 195.967C108.515 196.099 108.207 196.165 107.877 196.165C107.276 196.165 106.795 195.967 106.436 195.571C106.077 195.168 105.897 194.658 105.897 194.042V190.709H106.931V193.888C106.931 194.284 107.026 194.61 107.217 194.867C107.415 195.124 107.719 195.252 108.13 195.252C108.541 195.252 108.852 195.131 109.065 194.889C109.278 194.64 109.384 194.31 109.384 193.899V190.709H110.418V195.021C110.418 195.366 110.436 195.692 110.473 196H109.483C109.454 195.839 109.439 195.626 109.439 195.362ZM115.34 190.654V191.754C115.186 191.732 115.035 191.721 114.889 191.721C113.921 191.721 113.437 192.264 113.437 193.349V196H112.403V190.709H113.415V191.633C113.737 190.958 114.265 190.621 114.999 190.621C115.116 190.621 115.23 190.632 115.34 190.654ZM117.279 192.81H120.172C120.157 192.414 120.025 192.091 119.776 191.842C119.527 191.585 119.175 191.457 118.72 191.457C118.309 191.457 117.972 191.593 117.708 191.864C117.444 192.128 117.301 192.443 117.279 192.81ZM120.326 194.185L121.217 194.493C121.063 194.984 120.777 195.388 120.359 195.703C119.941 196.011 119.435 196.165 118.841 196.165C118.1 196.165 117.47 195.912 116.949 195.406C116.436 194.893 116.179 194.203 116.179 193.338C116.179 192.531 116.428 191.864 116.927 191.336C117.426 190.808 118.02 190.544 118.709 190.544C119.508 190.544 120.132 190.797 120.579 191.303C121.026 191.802 121.25 192.473 121.25 193.316C121.25 193.448 121.243 193.558 121.228 193.646H117.246C117.253 194.115 117.407 194.5 117.708 194.801C118.016 195.102 118.394 195.252 118.841 195.252C119.596 195.252 120.091 194.896 120.326 194.185Z" fill="#2B3245"/>
<circle cx="70" cy="191" r="7.4" stroke="#603495" stroke-width="1.2"/>
<rect x="86.6" y="206.6" width="44.8" height="14.8" fill="white" stroke="#603495" stroke-width="1.2"/>
<path d="M92.2 212.4C91.7 212.887 91.45 213.57 91.45 214.45C91.45 215.33 91.7 216.017 92.2 216.51C92.7 217.003 93.3033 217.25 94.01 217.25C94.7167 217.25 95.32 217.003 95.82 216.51C96.32 216.017 96.57 215.33 96.57 214.45C96.57 213.57 96.32 212.887 95.82 212.4C95.32 211.907 94.7167 211.66 94.01 211.66C93.3033 211.66 92.7 211.907 92.2 212.4ZM90.45 214.45C90.45 213.877 90.55 213.353 90.75 212.88C90.9567 212.407 91.2267 212.02 91.56 211.72C91.9 211.413 92.28 211.177 92.7 211.01C93.12 210.843 93.5567 210.76 94.01 210.76C94.4633 210.76 94.9 210.843 95.32 211.01C95.74 211.177 96.1167 211.413 96.45 211.72C96.79 212.02 97.06 212.407 97.26 212.88C97.4667 213.353 97.57 213.877 97.57 214.45C97.57 215.21 97.3933 215.877 97.04 216.45C96.6933 217.023 96.2533 217.45 95.72 217.73C95.1867 218.01 94.6167 218.15 94.01 218.15C93.4033 218.15 92.8333 218.01 92.3 217.73C91.7667 217.45 91.3233 217.023 90.97 216.45C90.6233 215.877 90.45 215.21 90.45 214.45ZM100.531 211.67V213.19H101.571V214.04H100.531V216.54C100.531 216.767 100.581 216.933 100.681 217.04C100.788 217.147 100.961 217.2 101.201 217.2C101.341 217.2 101.465 217.187 101.571 217.16V217.96C101.411 218.02 101.198 218.05 100.931 218.05C100.518 218.05 100.191 217.93 99.9515 217.69C99.7115 217.45 99.5915 217.113 99.5915 216.68V214.04H98.6715V213.19H98.9315C99.1782 213.19 99.3615 213.123 99.4815 212.99C99.6082 212.85 99.6715 212.67 99.6715 212.45V211.67H100.531ZM103.966 215.17V218H103.026V210.76H103.966V213.75C104.286 213.283 104.773 213.05 105.426 213.05C105.98 213.05 106.403 213.227 106.696 213.58C106.996 213.933 107.146 214.39 107.146 214.95V218H106.206V215.11C106.206 214.303 105.833 213.9 105.086 213.9C104.74 213.9 104.47 214.02 104.276 214.26C104.083 214.493 103.98 214.797 103.966 215.17ZM109.451 215.1H112.081C112.068 214.74 111.948 214.447 111.721 214.22C111.495 213.987 111.175 213.87 110.761 213.87C110.388 213.87 110.081 213.993 109.841 214.24C109.601 214.48 109.471 214.767 109.451 215.1ZM112.221 216.35L113.031 216.63C112.891 217.077 112.631 217.443 112.251 217.73C111.871 218.01 111.411 218.15 110.871 218.15C110.198 218.15 109.625 217.92 109.151 217.46C108.685 216.993 108.451 216.367 108.451 215.58C108.451 214.847 108.678 214.24 109.131 213.76C109.585 213.28 110.125 213.04 110.751 213.04C111.478 213.04 112.045 213.27 112.451 213.73C112.858 214.183 113.061 214.793 113.061 215.56C113.061 215.68 113.055 215.78 113.041 215.86H109.421C109.428 216.287 109.568 216.637 109.841 216.91C110.121 217.183 110.465 217.32 110.871 217.32C111.558 217.32 112.008 216.997 112.221 216.35ZM117.131 213.14V214.14C116.991 214.12 116.855 214.11 116.721 214.11C115.841 214.11 115.401 214.603 115.401 215.59V218H114.461V213.19H115.381V214.03C115.675 213.417 116.155 213.11 116.821 213.11C116.928 213.11 117.031 213.12 117.131 213.14Z" fill="#5E6673"/>
<circle cx="70" cy="214" r="7.4" stroke="#603495" stroke-width="1.2"/>
<path d="M63.738 247.545L62.462 247.457C62.44 247.259 62.429 247.123 62.429 247.05C62.429 246.405 62.6563 245.855 63.111 245.4C63.573 244.938 64.1927 244.707 64.97 244.707C65.7327 244.707 66.3413 244.923 66.796 245.356C67.2507 245.789 67.478 246.32 67.478 246.951C67.478 247.86 67.0197 248.597 66.103 249.162L64.717 250.02C64.3137 250.262 64.0717 250.533 63.991 250.834H67.522V252H62.363C62.3777 251.362 62.5133 250.805 62.77 250.328C63.0267 249.851 63.4557 249.426 64.057 249.052L65.234 248.315C65.8427 247.934 66.147 247.486 66.147 246.973C66.147 246.658 66.0407 246.394 65.828 246.181C65.6227 245.968 65.3293 245.862 64.948 245.862C64.5447 245.862 64.2367 245.987 64.024 246.236C63.8113 246.478 63.705 246.793 63.705 247.182L63.738 247.545ZM69.1182 251.813C68.9495 251.637 68.8652 251.424 68.8652 251.175C68.8652 250.926 68.9495 250.713 69.1182 250.537C69.2942 250.361 69.5069 250.273 69.7562 250.273C70.0055 250.273 70.2182 250.361 70.3942 250.537C70.5702 250.713 70.6582 250.926 70.6582 251.175C70.6582 251.424 70.5702 251.637 70.3942 251.813C70.2182 251.982 70.0055 252.066 69.7562 252.066C69.5069 252.066 69.2942 251.982 69.1182 251.813ZM82.7026 249.943L84.2316 244.201H85.5956L83.4066 252H82.0426L80.1506 246.104L78.2586 252H76.9056L74.6946 244.201H76.0806L77.6426 249.899L79.4686 244.201H80.8436L82.7026 249.943ZM88.0552 248.854V252H86.7792V244.036H88.0552V247.16C88.3999 246.713 88.9096 246.489 89.5842 246.489C90.2149 246.489 90.6989 246.687 91.0362 247.083C91.3736 247.479 91.5422 247.989 91.5422 248.612V252H90.2662V248.832C90.2662 248.473 90.1782 248.187 90.0022 247.974C89.8262 247.754 89.5476 247.644 89.1662 247.644C88.8289 247.644 88.5612 247.758 88.3632 247.985C88.1726 248.212 88.0699 248.502 88.0552 248.854ZM94.5806 252H93.3156V246.643H94.5806V252ZM93.3596 245.345C93.1983 245.184 93.1176 244.989 93.1176 244.762C93.1176 244.535 93.1983 244.34 93.3596 244.179C93.521 244.01 93.7153 243.926 93.9426 243.926C94.1773 243.926 94.3753 244.007 94.5366 244.168C94.698 244.329 94.7786 244.527 94.7786 244.762C94.7786 244.989 94.698 245.184 94.5366 245.345C94.3753 245.506 94.1773 245.587 93.9426 245.587C93.7153 245.587 93.521 245.506 93.3596 245.345ZM98.7788 247.655C98.3681 247.655 98.0198 247.805 97.7338 248.106C97.4478 248.399 97.3048 248.803 97.3048 249.316C97.3048 249.837 97.4478 250.247 97.7338 250.548C98.0271 250.849 98.3828 250.999 98.8008 250.999C99.1748 250.999 99.4718 250.9 99.6918 250.702C99.9191 250.497 100.069 250.266 100.143 250.009L101.265 250.416C101.118 250.893 100.832 251.303 100.407 251.648C99.9888 251.993 99.4534 252.165 98.8008 252.165C98.0161 252.165 97.3561 251.894 96.8208 251.351C96.2928 250.808 96.0288 250.13 96.0288 249.316C96.0288 248.495 96.2891 247.816 96.8098 247.281C97.3378 246.746 97.9904 246.478 98.7678 246.478C99.4351 246.478 99.9778 246.65 100.396 246.995C100.821 247.34 101.096 247.754 101.221 248.238L100.077 248.656C100.003 248.377 99.8604 248.143 99.6478 247.952C99.4424 247.754 99.1528 247.655 98.7788 247.655ZM103.894 248.854V252H102.618V244.036H103.894V247.16C104.239 246.713 104.748 246.489 105.423 246.489C106.054 246.489 106.538 246.687 106.875 247.083C107.212 247.479 107.381 247.989 107.381 248.612V252H106.105V248.832C106.105 248.473 106.017 248.187 105.841 247.974C105.665 247.754 105.386 247.644 105.005 247.644C104.668 247.644 104.4 247.758 104.202 247.985C104.011 248.212 103.909 248.502 103.894 248.854ZM111.773 250.548C111.773 250.093 111.92 249.73 112.213 249.459C112.514 249.18 112.906 249.004 113.39 248.931L114.765 248.722C115.029 248.685 115.161 248.557 115.161 248.337C115.161 248.095 115.077 247.901 114.908 247.754C114.739 247.6 114.486 247.523 114.149 247.523C113.826 247.523 113.57 247.615 113.379 247.798C113.188 247.974 113.078 248.205 113.049 248.491L111.883 248.227C111.934 247.743 112.165 247.332 112.576 246.995C112.987 246.65 113.507 246.478 114.138 246.478C114.915 246.478 115.487 246.665 115.854 247.039C116.228 247.413 116.415 247.893 116.415 248.48V251.142C116.415 251.494 116.437 251.78 116.481 252H115.293C115.256 251.89 115.238 251.663 115.238 251.318C114.886 251.883 114.336 252.165 113.588 252.165C113.045 252.165 112.605 252.007 112.268 251.692C111.938 251.369 111.773 250.988 111.773 250.548ZM113.83 251.164C114.226 251.164 114.545 251.058 114.787 250.845C115.036 250.625 115.161 250.269 115.161 249.778V249.536L113.764 249.745C113.287 249.826 113.049 250.068 113.049 250.471C113.049 250.662 113.119 250.827 113.258 250.966C113.397 251.098 113.588 251.164 113.83 251.164ZM121.312 246.61V247.908C121.166 247.886 121.026 247.875 120.894 247.875C119.934 247.875 119.453 248.399 119.453 249.448V252H118.177V246.643H119.42V247.501C119.545 247.215 119.747 246.991 120.025 246.83C120.304 246.661 120.619 246.577 120.971 246.577C121.089 246.577 121.202 246.588 121.312 246.61ZM123.435 248.733H126.064C126.049 248.396 125.928 248.113 125.701 247.886C125.481 247.659 125.162 247.545 124.744 247.545C124.362 247.545 124.054 247.666 123.82 247.908C123.585 248.143 123.457 248.418 123.435 248.733ZM126.207 250.13L127.285 250.471C127.131 250.962 126.841 251.369 126.416 251.692C125.998 252.007 125.481 252.165 124.865 252.165C124.102 252.165 123.453 251.905 122.918 251.384C122.39 250.863 122.126 250.167 122.126 249.294C122.126 248.473 122.382 247.798 122.896 247.27C123.416 246.742 124.029 246.478 124.733 246.478C125.554 246.478 126.196 246.731 126.658 247.237C127.12 247.736 127.351 248.41 127.351 249.261C127.351 249.488 127.34 249.624 127.318 249.668H123.402C123.416 250.071 123.563 250.405 123.842 250.669C124.128 250.933 124.469 251.065 124.865 251.065C125.554 251.065 126.001 250.753 126.207 250.13ZM128.46 250.548C128.46 250.093 128.607 249.73 128.9 249.459C129.201 249.18 129.593 249.004 130.077 248.931L131.452 248.722C131.716 248.685 131.848 248.557 131.848 248.337C131.848 248.095 131.764 247.901 131.595 247.754C131.427 247.6 131.174 247.523 130.836 247.523C130.514 247.523 130.257 247.615 130.066 247.798C129.876 247.974 129.766 248.205 129.736 248.491L128.57 248.227C128.622 247.743 128.853 247.332 129.263 246.995C129.674 246.65 130.195 246.478 130.825 246.478C131.603 246.478 132.175 246.665 132.541 247.039C132.915 247.413 133.102 247.893 133.102 248.48V251.142C133.102 251.494 133.124 251.78 133.168 252H131.98C131.944 251.89 131.925 251.663 131.925 251.318C131.573 251.883 131.023 252.165 130.275 252.165C129.733 252.165 129.293 252.007 128.955 251.692C128.625 251.369 128.46 250.988 128.46 250.548ZM130.517 251.164C130.913 251.164 131.232 251.058 131.474 250.845C131.724 250.625 131.848 250.269 131.848 249.778V249.536L130.451 249.745C129.975 249.826 129.736 250.068 129.736 250.471C129.736 250.662 129.806 250.827 129.945 250.966C130.085 251.098 130.275 251.164 130.517 251.164ZM134.392 250.548L135.503 250.24C135.525 250.497 135.631 250.713 135.822 250.889C136.012 251.065 136.269 251.153 136.592 251.153C136.841 251.153 137.035 251.094 137.175 250.977C137.321 250.86 137.395 250.713 137.395 250.537C137.395 250.229 137.186 250.031 136.768 249.943L135.976 249.767C135.514 249.664 135.158 249.474 134.909 249.195C134.659 248.916 134.535 248.586 134.535 248.205C134.535 247.736 134.725 247.332 135.107 246.995C135.488 246.65 135.954 246.478 136.504 246.478C136.856 246.478 137.167 246.529 137.439 246.632C137.71 246.735 137.919 246.87 138.066 247.039C138.22 247.2 138.337 247.358 138.418 247.512C138.498 247.666 138.55 247.82 138.572 247.974L137.494 248.282C137.464 248.077 137.369 247.893 137.208 247.732C137.054 247.563 136.819 247.479 136.504 247.479C136.284 247.479 136.1 247.541 135.954 247.666C135.807 247.783 135.734 247.926 135.734 248.095C135.734 248.396 135.913 248.583 136.273 248.656L137.087 248.821C137.585 248.931 137.967 249.129 138.231 249.415C138.495 249.701 138.627 250.046 138.627 250.449C138.627 250.896 138.447 251.296 138.088 251.648C137.736 251.993 137.241 252.165 136.603 252.165C136.236 252.165 135.906 252.11 135.613 252C135.327 251.89 135.099 251.751 134.931 251.582C134.769 251.406 134.641 251.234 134.546 251.065C134.458 250.889 134.406 250.717 134.392 250.548ZM142.731 250.548C142.731 250.093 142.877 249.73 143.171 249.459C143.471 249.18 143.864 249.004 144.348 248.931L145.723 248.722C145.987 248.685 146.119 248.557 146.119 248.337C146.119 248.095 146.034 247.901 145.866 247.754C145.697 247.6 145.444 247.523 145.107 247.523C144.784 247.523 144.527 247.615 144.337 247.798C144.146 247.974 144.036 248.205 144.007 248.491L142.841 248.227C142.892 247.743 143.123 247.332 143.534 246.995C143.944 246.65 144.465 246.478 145.096 246.478C145.873 246.478 146.445 246.665 146.812 247.039C147.186 247.413 147.373 247.893 147.373 248.48V251.142C147.373 251.494 147.395 251.78 147.439 252H146.251C146.214 251.89 146.196 251.663 146.196 251.318C145.844 251.883 145.294 252.165 144.546 252.165C144.003 252.165 143.563 252.007 143.226 251.692C142.896 251.369 142.731 250.988 142.731 250.548ZM144.788 251.164C145.184 251.164 145.503 251.058 145.745 250.845C145.994 250.625 146.119 250.269 146.119 249.778V249.536L144.722 249.745C144.245 249.826 144.007 250.068 144.007 250.471C144.007 250.662 144.076 250.827 144.216 250.966C144.355 251.098 144.546 251.164 144.788 251.164ZM152.27 246.61V247.908C152.123 247.886 151.984 247.875 151.852 247.875C150.891 247.875 150.411 248.399 150.411 249.448V252H149.135V246.643H150.378V247.501C150.503 247.215 150.704 246.991 150.983 246.83C151.262 246.661 151.577 246.577 151.929 246.577C152.046 246.577 152.16 246.588 152.27 246.61ZM154.393 248.733H157.022C157.007 248.396 156.886 248.113 156.659 247.886C156.439 247.659 156.12 247.545 155.702 247.545C155.32 247.545 155.012 247.666 154.778 247.908C154.543 248.143 154.415 248.418 154.393 248.733ZM157.165 250.13L158.243 250.471C158.089 250.962 157.799 251.369 157.374 251.692C156.956 252.007 156.439 252.165 155.823 252.165C155.06 252.165 154.411 251.905 153.876 251.384C153.348 250.863 153.084 250.167 153.084 249.294C153.084 248.473 153.34 247.798 153.854 247.27C154.374 246.742 154.987 246.478 155.691 246.478C156.512 246.478 157.154 246.731 157.616 247.237C158.078 247.736 158.309 248.41 158.309 249.261C158.309 249.488 158.298 249.624 158.276 249.668H154.36C154.374 250.071 154.521 250.405 154.8 250.669C155.086 250.933 155.427 251.065 155.823 251.065C156.512 251.065 156.959 250.753 157.165 250.13ZM163.961 252H162.696V246.643H163.917V247.325C164.064 247.061 164.284 246.856 164.577 246.709C164.878 246.562 165.186 246.489 165.501 246.489C165.861 246.489 166.183 246.57 166.469 246.731C166.755 246.892 166.968 247.127 167.107 247.435C167.481 246.804 168.061 246.489 168.845 246.489C169.373 246.489 169.821 246.661 170.187 247.006C170.554 247.351 170.737 247.857 170.737 248.524V252H169.505V248.733C169.505 248.403 169.417 248.139 169.241 247.941C169.073 247.736 168.816 247.633 168.471 247.633C168.141 247.633 167.874 247.747 167.668 247.974C167.463 248.201 167.36 248.484 167.36 248.821V252H166.106V248.733C166.106 248.403 166.018 248.139 165.842 247.941C165.674 247.736 165.417 247.633 165.072 247.633C164.735 247.633 164.464 247.747 164.258 247.974C164.06 248.194 163.961 248.476 163.961 248.821V252ZM173.807 250.57C174.1 250.871 174.456 251.021 174.874 251.021C175.292 251.021 175.644 250.871 175.93 250.57C176.223 250.269 176.37 249.851 176.37 249.316C176.37 248.788 176.223 248.377 175.93 248.084C175.644 247.783 175.292 247.633 174.874 247.633C174.456 247.633 174.1 247.783 173.807 248.084C173.521 248.377 173.378 248.788 173.378 249.316C173.378 249.844 173.521 250.262 173.807 250.57ZM174.874 246.478C175.681 246.478 176.344 246.746 176.865 247.281C177.393 247.816 177.657 248.495 177.657 249.316C177.657 250.137 177.393 250.819 176.865 251.362C176.344 251.897 175.681 252.165 174.874 252.165C174.075 252.165 173.411 251.897 172.883 251.362C172.362 250.819 172.102 250.137 172.102 249.316C172.102 248.495 172.362 247.816 172.883 247.281C173.411 246.746 174.075 246.478 174.874 246.478ZM178.637 250.548L179.748 250.24C179.77 250.497 179.876 250.713 180.067 250.889C180.258 251.065 180.514 251.153 180.837 251.153C181.086 251.153 181.281 251.094 181.42 250.977C181.567 250.86 181.64 250.713 181.64 250.537C181.64 250.229 181.431 250.031 181.013 249.943L180.221 249.767C179.759 249.664 179.403 249.474 179.154 249.195C178.905 248.916 178.78 248.586 178.78 248.205C178.78 247.736 178.971 247.332 179.352 246.995C179.733 246.65 180.199 246.478 180.749 246.478C181.101 246.478 181.413 246.529 181.684 246.632C181.955 246.735 182.164 246.87 182.311 247.039C182.465 247.2 182.582 247.358 182.663 247.512C182.744 247.666 182.795 247.82 182.817 247.974L181.739 248.282C181.71 248.077 181.614 247.893 181.453 247.732C181.299 247.563 181.064 247.479 180.749 247.479C180.529 247.479 180.346 247.541 180.199 247.666C180.052 247.783 179.979 247.926 179.979 248.095C179.979 248.396 180.159 248.583 180.518 248.656L181.332 248.821C181.831 248.931 182.212 249.129 182.476 249.415C182.74 249.701 182.872 250.046 182.872 250.449C182.872 250.896 182.692 251.296 182.333 251.648C181.981 251.993 181.486 252.165 180.848 252.165C180.481 252.165 180.151 252.11 179.858 252C179.572 251.89 179.345 251.751 179.176 251.582C179.015 251.406 178.886 251.234 178.791 251.065C178.703 250.889 178.652 250.717 178.637 250.548ZM185.974 245.004V246.643H187.085V247.776H185.974V250.262C185.974 250.497 186.029 250.669 186.139 250.779C186.249 250.882 186.422 250.933 186.656 250.933C186.803 250.933 186.95 250.918 187.096 250.889V251.945C186.906 252.026 186.645 252.066 186.315 252.066C185.817 252.066 185.424 251.927 185.138 251.648C184.852 251.362 184.709 250.97 184.709 250.471V247.776H183.719V246.643H183.994C184.266 246.643 184.471 246.566 184.61 246.412C184.75 246.258 184.819 246.056 184.819 245.807V245.004H185.974ZM192.808 252H191.543V246.643H192.808V252ZM191.587 245.345C191.426 245.184 191.345 244.989 191.345 244.762C191.345 244.535 191.426 244.34 191.587 244.179C191.749 244.01 191.943 243.926 192.17 243.926C192.405 243.926 192.603 244.007 192.764 244.168C192.926 244.329 193.006 244.527 193.006 244.762C193.006 244.989 192.926 245.184 192.764 245.345C192.603 245.506 192.405 245.587 192.17 245.587C191.943 245.587 191.749 245.506 191.587 245.345ZM195.94 252H194.675V246.643H195.896V247.325C196.042 247.061 196.262 246.856 196.556 246.709C196.856 246.562 197.164 246.489 197.48 246.489C197.839 246.489 198.162 246.57 198.448 246.731C198.734 246.892 198.946 247.127 199.086 247.435C199.46 246.804 200.039 246.489 200.824 246.489C201.352 246.489 201.799 246.661 202.166 247.006C202.532 247.351 202.716 247.857 202.716 248.524V252H201.484V248.733C201.484 248.403 201.396 248.139 201.22 247.941C201.051 247.736 200.794 247.633 200.45 247.633C200.12 247.633 199.852 247.747 199.647 247.974C199.441 248.201 199.339 248.484 199.339 248.821V252H198.085V248.733C198.085 248.403 197.997 248.139 197.821 247.941C197.652 247.736 197.395 247.633 197.051 247.633C196.713 247.633 196.442 247.747 196.237 247.974C196.039 248.194 195.94 248.476 195.94 248.821V252ZM205.763 254.09H204.498V246.643H205.73V247.369C205.869 247.127 206.089 246.925 206.39 246.764C206.691 246.603 207.039 246.522 207.435 246.522C208.205 246.522 208.81 246.786 209.25 247.314C209.69 247.835 209.91 248.502 209.91 249.316C209.91 250.13 209.679 250.805 209.217 251.34C208.755 251.868 208.146 252.132 207.391 252.132C207.024 252.132 206.698 252.062 206.412 251.923C206.126 251.784 205.91 251.608 205.763 251.395V254.09ZM208.634 249.316C208.634 248.817 208.502 248.418 208.238 248.117C207.974 247.809 207.626 247.655 207.193 247.655C206.768 247.655 206.419 247.809 206.148 248.117C205.884 248.418 205.752 248.817 205.752 249.316C205.752 249.822 205.884 250.229 206.148 250.537C206.419 250.845 206.768 250.999 207.193 250.999C207.618 250.999 207.963 250.845 208.227 250.537C208.498 250.229 208.634 249.822 208.634 249.316ZM212.644 250.57C212.937 250.871 213.293 251.021 213.711 251.021C214.129 251.021 214.481 250.871 214.767 250.57C215.06 250.269 215.207 249.851 215.207 249.316C215.207 248.788 215.06 248.377 214.767 248.084C214.481 247.783 214.129 247.633 213.711 247.633C213.293 247.633 212.937 247.783 212.644 248.084C212.358 248.377 212.215 248.788 212.215 249.316C212.215 249.844 212.358 250.262 212.644 250.57ZM213.711 246.478C214.517 246.478 215.181 246.746 215.702 247.281C216.23 247.816 216.494 248.495 216.494 249.316C216.494 250.137 216.23 250.819 215.702 251.362C215.181 251.897 214.517 252.165 213.711 252.165C212.911 252.165 212.248 251.897 211.72 251.362C211.199 250.819 210.939 250.137 210.939 249.316C210.939 248.495 211.199 247.816 211.72 247.281C212.248 246.746 212.911 246.478 213.711 246.478ZM221.082 246.61V247.908C220.935 247.886 220.796 247.875 220.664 247.875C219.703 247.875 219.223 248.399 219.223 249.448V252H217.947V246.643H219.19V247.501C219.315 247.215 219.516 246.991 219.795 246.83C220.074 246.661 220.389 246.577 220.741 246.577C220.858 246.577 220.972 246.588 221.082 246.61ZM224.22 245.004V246.643H225.331V247.776H224.22V250.262C224.22 250.497 224.275 250.669 224.385 250.779C224.495 250.882 224.668 250.933 224.902 250.933C225.049 250.933 225.196 250.918 225.342 250.889V251.945C225.152 252.026 224.891 252.066 224.561 252.066C224.063 252.066 223.67 251.927 223.384 251.648C223.098 251.362 222.955 250.97 222.955 250.471V247.776H221.965V246.643H222.24C222.512 246.643 222.717 246.566 222.856 246.412C222.996 246.258 223.065 246.056 223.065 245.807V245.004H224.22ZM226.543 250.548C226.543 250.093 226.69 249.73 226.983 249.459C227.284 249.18 227.676 249.004 228.16 248.931L229.535 248.722C229.799 248.685 229.931 248.557 229.931 248.337C229.931 248.095 229.847 247.901 229.678 247.754C229.51 247.6 229.257 247.523 228.919 247.523C228.597 247.523 228.34 247.615 228.149 247.798C227.959 247.974 227.849 248.205 227.819 248.491L226.653 248.227C226.705 247.743 226.936 247.332 227.346 246.995C227.757 246.65 228.278 246.478 228.908 246.478C229.686 246.478 230.258 246.665 230.624 247.039C230.998 247.413 231.185 247.893 231.185 248.48V251.142C231.185 251.494 231.207 251.78 231.251 252H230.063C230.027 251.89 230.008 251.663 230.008 251.318C229.656 251.883 229.106 252.165 228.358 252.165C227.816 252.165 227.376 252.007 227.038 251.692C226.708 251.369 226.543 250.988 226.543 250.548ZM228.6 251.164C228.996 251.164 229.315 251.058 229.557 250.845C229.807 250.625 229.931 250.269 229.931 249.778V249.536L228.534 249.745C228.058 249.826 227.819 250.068 227.819 250.471C227.819 250.662 227.889 250.827 228.028 250.966C228.168 251.098 228.358 251.164 228.6 251.164ZM234.224 248.909V252H232.948V246.643H234.191V247.358C234.359 247.065 234.583 246.848 234.862 246.709C235.148 246.562 235.452 246.489 235.775 246.489C236.405 246.489 236.886 246.687 237.216 247.083C237.546 247.479 237.711 247.989 237.711 248.612V252H236.435V248.832C236.435 248.473 236.347 248.187 236.171 247.974C235.995 247.754 235.716 247.644 235.335 247.644C234.983 247.644 234.708 247.765 234.51 248.007C234.319 248.242 234.224 248.542 234.224 248.909ZM241.101 245.004V246.643H242.212V247.776H241.101V250.262C241.101 250.497 241.156 250.669 241.266 250.779C241.376 250.882 241.548 250.933 241.783 250.933C241.93 250.933 242.076 250.918 242.223 250.889V251.945C242.032 252.026 241.772 252.066 241.442 252.066C240.943 252.066 240.551 251.927 240.265 251.648C239.979 251.362 239.836 250.97 239.836 250.471V247.776H238.846V246.643H239.121C239.392 246.643 239.598 246.566 239.737 246.412C239.876 246.258 239.946 246.056 239.946 245.807V245.004H241.101ZM248.287 245.004V246.643H249.398V247.776H248.287V250.262C248.287 250.497 248.342 250.669 248.452 250.779C248.562 250.882 248.735 250.933 248.969 250.933C249.116 250.933 249.263 250.918 249.409 250.889V251.945C249.219 252.026 248.958 252.066 248.628 252.066C248.13 252.066 247.737 251.927 247.451 251.648C247.165 251.362 247.022 250.97 247.022 250.471V247.776H246.032V246.643H246.307C246.579 246.643 246.784 246.566 246.923 246.412C247.063 246.258 247.132 246.056 247.132 245.807V245.004H248.287ZM252.163 250.57C252.456 250.871 252.812 251.021 253.23 251.021C253.648 251.021 254 250.871 254.286 250.57C254.579 250.269 254.726 249.851 254.726 249.316C254.726 248.788 254.579 248.377 254.286 248.084C254 247.783 253.648 247.633 253.23 247.633C252.812 247.633 252.456 247.783 252.163 248.084C251.877 248.377 251.734 248.788 251.734 249.316C251.734 249.844 251.877 250.262 252.163 250.57ZM253.23 246.478C254.036 246.478 254.7 246.746 255.221 247.281C255.749 247.816 256.013 248.495 256.013 249.316C256.013 250.137 255.749 250.819 255.221 251.362C254.7 251.897 254.036 252.165 253.23 252.165C252.43 252.165 251.767 251.897 251.239 251.362C250.718 250.819 250.458 250.137 250.458 249.316C250.458 248.495 250.718 247.816 251.239 247.281C251.767 246.746 252.43 246.478 253.23 246.478ZM262.042 254.167H260.678L261.965 251.362L259.677 246.643H261.118L262.658 250.031L264.099 246.643H265.452L262.042 254.167ZM267.647 250.57C267.94 250.871 268.296 251.021 268.714 251.021C269.132 251.021 269.484 250.871 269.77 250.57C270.063 250.269 270.21 249.851 270.21 249.316C270.21 248.788 270.063 248.377 269.77 248.084C269.484 247.783 269.132 247.633 268.714 247.633C268.296 247.633 267.94 247.783 267.647 248.084C267.361 248.377 267.218 248.788 267.218 249.316C267.218 249.844 267.361 250.262 267.647 250.57ZM268.714 246.478C269.52 246.478 270.184 246.746 270.705 247.281C271.233 247.816 271.497 248.495 271.497 249.316C271.497 250.137 271.233 250.819 270.705 251.362C270.184 251.897 269.52 252.165 268.714 252.165C267.914 252.165 267.251 251.897 266.723 251.362C266.202 250.819 265.942 250.137 265.942 249.316C265.942 248.495 266.202 247.816 266.723 247.281C267.251 246.746 267.914 246.478 268.714 246.478ZM276.405 251.406C276.28 251.641 276.075 251.824 275.789 251.956C275.51 252.088 275.209 252.154 274.887 252.154C274.263 252.154 273.768 251.952 273.402 251.549C273.042 251.146 272.863 250.636 272.863 250.02V246.643H274.139V249.789C274.139 250.148 274.227 250.442 274.403 250.669C274.579 250.896 274.85 251.01 275.217 251.01C275.576 251.01 275.851 250.9 276.042 250.68C276.24 250.46 276.339 250.17 276.339 249.811V246.643H277.615V251.021C277.615 251.344 277.633 251.67 277.67 252H276.449C276.419 251.839 276.405 251.641 276.405 251.406ZM65.861 263.643H67.181L68.446 267.35L69.513 263.643H70.811L69.095 269H67.819L66.488 265.15L65.19 269H63.881L62.143 263.643H63.507L64.596 267.35L65.861 263.643ZM73.28 265.854V269H72.004V261.036H73.28V264.16C73.6247 263.713 74.1343 263.489 74.809 263.489C75.4397 263.489 75.9237 263.687 76.261 264.083C76.5983 264.479 76.767 264.989 76.767 265.612V269H75.491V265.832C75.491 265.473 75.403 265.187 75.227 264.974C75.051 264.754 74.7723 264.644 74.391 264.644C74.0537 264.644 73.786 264.758 73.588 264.985C73.3973 265.212 73.2947 265.502 73.28 265.854ZM79.4314 265.733H82.0604C82.0457 265.396 81.9247 265.113 81.6974 264.886C81.4774 264.659 81.1584 264.545 80.7404 264.545C80.3591 264.545 80.0511 264.666 79.8164 264.908C79.5817 265.143 79.4534 265.418 79.4314 265.733ZM82.2034 267.13L83.2814 267.471C83.1274 267.962 82.8377 268.369 82.4124 268.692C81.9944 269.007 81.4774 269.165 80.8614 269.165C80.0987 269.165 79.4497 268.905 78.9144 268.384C78.3864 267.863 78.1224 267.167 78.1224 266.294C78.1224 265.473 78.3791 264.798 78.8924 264.27C79.4131 263.742 80.0254 263.478 80.7294 263.478C81.5507 263.478 82.1924 263.731 82.6544 264.237C83.1164 264.736 83.3474 265.41 83.3474 266.261C83.3474 266.488 83.3364 266.624 83.3144 266.668H79.3984C79.4131 267.071 79.5597 267.405 79.8384 267.669C80.1244 267.933 80.4654 268.065 80.8614 268.065C81.5507 268.065 81.9981 267.753 82.2034 267.13ZM86.0628 265.909V269H84.7868V263.643H86.0298V264.358C86.1984 264.065 86.4221 263.848 86.7008 263.709C86.9868 263.562 87.2911 263.489 87.6138 263.489C88.2444 263.489 88.7248 263.687 89.0548 264.083C89.3848 264.479 89.5498 264.989 89.5498 265.612V269H88.2738V265.832C88.2738 265.473 88.1858 265.187 88.0098 264.974C87.8338 264.754 87.5551 264.644 87.1738 264.644C86.8218 264.644 86.5468 264.765 86.3488 265.007C86.1581 265.242 86.0628 265.542 86.0628 265.909ZM95.8997 271.167H94.5357L95.8227 268.362L93.5347 263.643H94.9757L96.5157 267.031L97.9567 263.643H99.3097L95.8997 271.167ZM101.504 267.57C101.798 267.871 102.153 268.021 102.571 268.021C102.989 268.021 103.341 267.871 103.627 267.57C103.921 267.269 104.067 266.851 104.067 266.316C104.067 265.788 103.921 265.377 103.627 265.084C103.341 264.783 102.989 264.633 102.571 264.633C102.153 264.633 101.798 264.783 101.504 265.084C101.218 265.377 101.075 265.788 101.075 266.316C101.075 266.844 101.218 267.262 101.504 267.57ZM102.571 263.478C103.378 263.478 104.042 263.746 104.562 264.281C105.09 264.816 105.354 265.495 105.354 266.316C105.354 267.137 105.09 267.819 104.562 268.362C104.042 268.897 103.378 269.165 102.571 269.165C101.772 269.165 101.108 268.897 100.58 268.362C100.06 267.819 99.7993 267.137 99.7993 266.316C99.7993 265.495 100.06 264.816 100.58 264.281C101.108 263.746 101.772 263.478 102.571 263.478ZM110.262 268.406C110.137 268.641 109.932 268.824 109.646 268.956C109.367 269.088 109.067 269.154 108.744 269.154C108.121 269.154 107.626 268.952 107.259 268.549C106.9 268.146 106.72 267.636 106.72 267.02V263.643H107.996V266.789C107.996 267.148 108.084 267.442 108.26 267.669C108.436 267.896 108.707 268.01 109.074 268.01C109.433 268.01 109.708 267.9 109.899 267.68C110.097 267.46 110.196 267.17 110.196 266.811V263.643H111.472V268.021C111.472 268.344 111.49 268.67 111.527 269H110.306C110.277 268.839 110.262 268.641 110.262 268.406ZM121.132 263.643L119.031 269H117.755L115.577 263.643H116.985L118.404 267.471L119.79 263.643H121.132ZM123.417 267.57C123.711 267.871 124.066 268.021 124.484 268.021C124.902 268.021 125.254 267.871 125.54 267.57C125.834 267.269 125.98 266.851 125.98 266.316C125.98 265.788 125.834 265.377 125.54 265.084C125.254 264.783 124.902 264.633 124.484 264.633C124.066 264.633 123.711 264.783 123.417 265.084C123.131 265.377 122.988 265.788 122.988 266.316C122.988 266.844 123.131 267.262 123.417 267.57ZM124.484 263.478C125.291 263.478 125.955 263.746 126.475 264.281C127.003 264.816 127.267 265.495 127.267 266.316C127.267 267.137 127.003 267.819 126.475 268.362C125.955 268.897 125.291 269.165 124.484 269.165C123.685 269.165 123.021 268.897 122.493 268.362C121.973 267.819 121.712 267.137 121.712 266.316C121.712 265.495 121.973 264.816 122.493 264.281C123.021 263.746 123.685 263.478 124.484 263.478ZM130.305 262.004V263.643H131.416V264.776H130.305V267.262C130.305 267.497 130.36 267.669 130.47 267.779C130.58 267.882 130.753 267.933 130.987 267.933C131.134 267.933 131.281 267.918 131.427 267.889V268.945C131.237 269.026 130.976 269.066 130.646 269.066C130.148 269.066 129.755 268.927 129.469 268.648C129.183 268.362 129.04 267.97 129.04 267.471V264.776H128.05V263.643H128.325C128.597 263.643 128.802 263.566 128.941 263.412C129.081 263.258 129.15 263.056 129.15 262.807V262.004H130.305ZM133.785 265.733H136.414C136.399 265.396 136.278 265.113 136.051 264.886C135.831 264.659 135.512 264.545 135.094 264.545C134.712 264.545 134.404 264.666 134.17 264.908C133.935 265.143 133.807 265.418 133.785 265.733ZM136.557 267.13L137.635 267.471C137.481 267.962 137.191 268.369 136.766 268.692C136.348 269.007 135.831 269.165 135.215 269.165C134.452 269.165 133.803 268.905 133.268 268.384C132.74 267.863 132.476 267.167 132.476 266.294C132.476 265.473 132.732 264.798 133.246 264.27C133.766 263.742 134.379 263.478 135.083 263.478C135.904 263.478 136.546 263.731 137.008 264.237C137.47 264.736 137.701 265.41 137.701 266.261C137.701 266.488 137.69 266.624 137.668 266.668H133.752C133.766 267.071 133.913 267.405 134.192 267.669C134.478 267.933 134.819 268.065 135.215 268.065C135.904 268.065 136.351 267.753 136.557 267.13ZM141.302 266.69H140.202C140.188 266.499 140.18 266.36 140.18 266.272C140.18 265.597 140.477 265.044 141.071 264.611L141.577 264.248C141.922 263.999 142.094 263.68 142.094 263.291C142.094 262.983 141.992 262.723 141.786 262.51C141.581 262.29 141.288 262.18 140.906 262.18C140.518 262.18 140.213 262.305 139.993 262.554C139.773 262.803 139.663 263.097 139.663 263.434C139.663 263.639 139.685 263.804 139.729 263.929L138.486 263.841C138.442 263.687 138.42 263.518 138.42 263.335C138.42 262.734 138.64 262.202 139.08 261.74C139.52 261.271 140.129 261.036 140.906 261.036C141.684 261.036 142.296 261.252 142.743 261.685C143.191 262.118 143.414 262.635 143.414 263.236C143.414 264.006 143.048 264.651 142.314 265.172L141.841 265.502C141.475 265.759 141.291 266.107 141.291 266.547C141.291 266.598 141.295 266.646 141.302 266.69ZM140.191 268.846C140.037 268.685 139.96 268.494 139.96 268.274C139.96 268.054 140.037 267.863 140.191 267.702C140.353 267.541 140.543 267.46 140.763 267.46C140.983 267.46 141.17 267.541 141.324 267.702C141.486 267.863 141.566 268.054 141.566 268.274C141.566 268.494 141.486 268.685 141.324 268.846C141.17 269 140.983 269.077 140.763 269.077C140.536 269.077 140.345 269 140.191 268.846Z" fill="#2B3245"/>
<path d="M90.367 294.165C89.3037 294.165 88.3907 293.798 87.628 293.065C86.8727 292.332 86.495 291.342 86.495 290.095C86.495 289.259 86.6857 288.526 87.067 287.895C87.4483 287.264 87.9287 286.799 88.508 286.498C89.0873 286.19 89.707 286.036 90.367 286.036C91.247 286.036 91.9877 286.26 92.589 286.707C93.1977 287.147 93.601 287.748 93.799 288.511L92.798 288.863C92.6513 288.276 92.369 287.825 91.951 287.51C91.533 287.187 91.005 287.026 90.367 287.026C89.6043 287.026 88.9517 287.297 88.409 287.84C87.8663 288.375 87.595 289.127 87.595 290.095C87.595 291.063 87.8663 291.818 88.409 292.361C88.9517 292.904 89.6043 293.175 90.367 293.175C91.005 293.175 91.5367 293.006 91.962 292.669C92.3873 292.324 92.6843 291.87 92.853 291.305L93.81 291.657C93.5973 292.412 93.1867 293.021 92.578 293.483C91.9767 293.938 91.2397 294.165 90.367 294.165ZM98.1259 288.654V289.754C97.9719 289.732 97.8215 289.721 97.6749 289.721C96.7069 289.721 96.2229 290.264 96.2229 291.349V294H95.1889V288.709H96.2009V289.633C96.5235 288.958 97.0515 288.621 97.7849 288.621C97.9022 288.621 98.0159 288.632 98.1259 288.654ZM100.471 294H99.4479V288.709H100.471V294ZM99.4259 287.235C99.2866 287.088 99.2169 286.912 99.2169 286.707C99.2169 286.502 99.2866 286.326 99.4259 286.179C99.5726 286.032 99.7486 285.959 99.9539 285.959C100.159 285.959 100.335 286.032 100.482 286.179C100.629 286.318 100.702 286.494 100.702 286.707C100.702 286.912 100.629 287.088 100.482 287.235C100.335 287.374 100.159 287.444 99.9539 287.444C99.7486 287.444 99.5726 287.374 99.4259 287.235ZM103.473 294H102.45V288.709H103.44V289.413C103.601 289.134 103.829 288.922 104.122 288.775C104.415 288.628 104.723 288.555 105.046 288.555C105.391 288.555 105.706 288.639 105.992 288.808C106.278 288.977 106.491 289.226 106.63 289.556C106.997 288.889 107.587 288.555 108.401 288.555C108.907 288.555 109.336 288.727 109.688 289.072C110.047 289.417 110.227 289.915 110.227 290.568V294H109.204V290.678C109.204 290.311 109.109 290.018 108.918 289.798C108.735 289.578 108.456 289.468 108.082 289.468C107.723 289.468 107.429 289.596 107.202 289.853C106.975 290.102 106.861 290.418 106.861 290.799V294H105.827V290.678C105.827 290.311 105.732 290.018 105.541 289.798C105.358 289.578 105.079 289.468 104.705 289.468C104.338 289.468 104.041 289.593 103.814 289.842C103.587 290.091 103.473 290.414 103.473 290.81V294ZM112.773 290.81H115.666C115.651 290.414 115.519 290.091 115.27 289.842C115.02 289.585 114.668 289.457 114.214 289.457C113.803 289.457 113.466 289.593 113.202 289.864C112.938 290.128 112.795 290.443 112.773 290.81ZM115.82 292.185L116.711 292.493C116.557 292.984 116.271 293.388 115.853 293.703C115.435 294.011 114.929 294.165 114.335 294.165C113.594 294.165 112.963 293.912 112.443 293.406C111.929 292.893 111.673 292.203 111.673 291.338C111.673 290.531 111.922 289.864 112.421 289.336C112.919 288.808 113.513 288.544 114.203 288.544C115.002 288.544 115.625 288.797 116.073 289.303C116.52 289.802 116.744 290.473 116.744 291.316C116.744 291.448 116.736 291.558 116.722 291.646H112.74C112.747 292.115 112.901 292.5 113.202 292.801C113.51 293.102 113.887 293.252 114.335 293.252C115.09 293.252 115.585 292.896 115.82 292.185ZM126.137 294L125.147 292.966C124.451 293.743 123.721 294.132 122.958 294.132C122.262 294.132 121.712 293.934 121.308 293.538C120.905 293.142 120.703 292.676 120.703 292.141C120.703 291.672 120.813 291.279 121.033 290.964C121.261 290.649 121.609 290.315 122.078 289.963L122.188 289.875L122.045 289.721C121.862 289.53 121.719 289.376 121.616 289.259C121.521 289.134 121.411 288.951 121.286 288.709C121.169 288.46 121.11 288.218 121.11 287.983C121.11 287.389 121.312 286.916 121.715 286.564C122.126 286.212 122.595 286.036 123.123 286.036C123.725 286.036 124.22 286.212 124.608 286.564C124.997 286.909 125.191 287.367 125.191 287.939C125.191 288.548 124.825 289.123 124.091 289.666L123.695 289.963L125.147 291.47L126.885 289.534V290.953L125.829 292.174L127.6 294H126.137ZM122.969 293.142C123.241 293.142 123.486 293.069 123.706 292.922C123.934 292.775 124.172 292.563 124.421 292.284L124.454 292.24L122.87 290.579L122.474 290.876C122.034 291.213 121.814 291.606 121.814 292.053C121.814 292.332 121.921 292.585 122.133 292.812C122.353 293.032 122.632 293.142 122.969 293.142ZM122.177 287.917C122.177 288.232 122.375 288.595 122.771 289.006L123.013 289.27L123.541 288.874C123.93 288.588 124.124 288.265 124.124 287.906C124.124 287.642 124.029 287.418 123.838 287.235C123.655 287.052 123.42 286.96 123.134 286.96C122.885 286.96 122.661 287.048 122.463 287.224C122.273 287.393 122.177 287.624 122.177 287.917ZM130.573 291.679V291.173L131.651 290.931V291.668C131.651 292.167 131.772 292.541 132.014 292.79C132.256 293.039 132.582 293.164 132.993 293.164C133.389 293.164 133.7 293.039 133.928 292.79C134.155 292.541 134.269 292.192 134.269 291.745V286.201H135.347V291.668C135.347 292.372 135.13 292.966 134.698 293.45C134.272 293.927 133.708 294.165 133.004 294.165C132.248 294.165 131.654 293.941 131.222 293.494C130.789 293.039 130.573 292.434 130.573 291.679ZM140.816 293.362C140.676 293.626 140.464 293.828 140.178 293.967C139.892 294.099 139.584 294.165 139.254 294.165C138.652 294.165 138.172 293.967 137.813 293.571C137.453 293.168 137.274 292.658 137.274 292.042V288.709H138.308V291.888C138.308 292.284 138.403 292.61 138.594 292.867C138.792 293.124 139.096 293.252 139.507 293.252C139.917 293.252 140.229 293.131 140.442 292.889C140.654 292.64 140.761 292.31 140.761 291.899V288.709H141.795V293.021C141.795 293.366 141.813 293.692 141.85 294H140.86C140.83 293.839 140.816 293.626 140.816 293.362ZM143.284 292.625L144.219 292.295C144.256 292.581 144.381 292.819 144.593 293.01C144.806 293.193 145.092 293.285 145.451 293.285C145.73 293.285 145.95 293.219 146.111 293.087C146.273 292.948 146.353 292.779 146.353 292.581C146.353 292.229 146.126 292.002 145.671 291.899L144.769 291.701C144.359 291.613 144.036 291.437 143.801 291.173C143.567 290.909 143.449 290.59 143.449 290.216C143.449 289.761 143.633 289.369 143.999 289.039C144.373 288.709 144.817 288.544 145.33 288.544C145.668 288.544 145.968 288.595 146.232 288.698C146.496 288.793 146.702 288.922 146.848 289.083C146.995 289.244 147.105 289.395 147.178 289.534C147.252 289.673 147.307 289.816 147.343 289.963L146.43 290.304C146.416 290.216 146.39 290.132 146.353 290.051C146.317 289.963 146.258 289.868 146.177 289.765C146.104 289.662 145.994 289.582 145.847 289.523C145.701 289.457 145.528 289.424 145.33 289.424C145.074 289.424 144.861 289.494 144.692 289.633C144.531 289.772 144.45 289.937 144.45 290.128C144.45 290.465 144.652 290.678 145.055 290.766L145.913 290.953C146.383 291.056 146.742 291.246 146.991 291.525C147.248 291.796 147.376 292.13 147.376 292.526C147.376 292.944 147.204 293.322 146.859 293.659C146.522 293.996 146.049 294.165 145.44 294.165C144.788 294.165 144.278 294.004 143.911 293.681C143.545 293.351 143.336 292.999 143.284 292.625ZM150.359 287.037V288.709H151.503V289.644H150.359V292.394C150.359 292.643 150.414 292.827 150.524 292.944C150.641 293.061 150.832 293.12 151.096 293.12C151.25 293.12 151.386 293.105 151.503 293.076V293.956C151.327 294.022 151.092 294.055 150.799 294.055C150.344 294.055 149.985 293.923 149.721 293.659C149.457 293.395 149.325 293.025 149.325 292.548V289.644H148.313V288.709H148.599C148.87 288.709 149.072 288.636 149.204 288.489C149.343 288.335 149.413 288.137 149.413 287.895V287.037H150.359ZM154.126 294H153.103V288.709H154.126V294ZM153.081 287.235C152.942 287.088 152.872 286.912 152.872 286.707C152.872 286.502 152.942 286.326 153.081 286.179C153.228 286.032 153.404 285.959 153.609 285.959C153.814 285.959 153.99 286.032 154.137 286.179C154.284 286.318 154.357 286.494 154.357 286.707C154.357 286.912 154.284 287.088 154.137 287.235C153.99 287.374 153.814 287.444 153.609 287.444C153.404 287.444 153.228 287.374 153.081 287.235ZM158.327 289.501C157.88 289.501 157.499 289.662 157.183 289.985C156.875 290.308 156.721 290.762 156.721 291.349C156.721 291.928 156.875 292.383 157.183 292.713C157.499 293.043 157.884 293.208 158.338 293.208C158.778 293.208 159.112 293.098 159.339 292.878C159.574 292.658 159.732 292.405 159.812 292.119L160.725 292.515C160.579 292.955 160.3 293.34 159.889 293.67C159.486 294 158.969 294.165 158.338 294.165C157.568 294.165 156.93 293.897 156.424 293.362C155.918 292.827 155.665 292.156 155.665 291.349C155.665 290.528 155.918 289.857 156.424 289.336C156.93 288.808 157.565 288.544 158.327 288.544C158.973 288.544 159.493 288.709 159.889 289.039C160.293 289.369 160.557 289.765 160.681 290.227L159.746 290.623C159.666 290.315 159.512 290.051 159.284 289.831C159.057 289.611 158.738 289.501 158.327 289.501ZM162.776 290.81H165.669C165.654 290.414 165.522 290.091 165.273 289.842C165.023 289.585 164.671 289.457 164.217 289.457C163.806 289.457 163.469 289.593 163.205 289.864C162.941 290.128 162.798 290.443 162.776 290.81ZM165.823 292.185L166.714 292.493C166.56 292.984 166.274 293.388 165.856 293.703C165.438 294.011 164.932 294.165 164.338 294.165C163.597 294.165 162.966 293.912 162.446 293.406C161.932 292.893 161.676 292.203 161.676 291.338C161.676 290.531 161.925 289.864 162.424 289.336C162.922 288.808 163.516 288.544 164.206 288.544C165.005 288.544 165.628 288.797 166.076 289.303C166.523 289.802 166.747 290.473 166.747 291.316C166.747 291.448 166.739 291.558 166.725 291.646H162.743C162.75 292.115 162.904 292.5 163.205 292.801C163.513 293.102 163.89 293.252 164.338 293.252C165.093 293.252 165.588 292.896 165.823 292.185Z" fill="#2B3245"/>
<circle cx="70" cy="289" r="7.4" stroke="#603495" stroke-width="1.2"/>
<path d="M90.367 317.165C89.3037 317.165 88.3907 316.798 87.628 316.065C86.8727 315.332 86.495 314.342 86.495 313.095C86.495 312.259 86.6857 311.526 87.067 310.895C87.4483 310.264 87.9287 309.799 88.508 309.498C89.0873 309.19 89.707 309.036 90.367 309.036C91.247 309.036 91.9877 309.26 92.589 309.707C93.1977 310.147 93.601 310.748 93.799 311.511L92.798 311.863C92.6513 311.276 92.369 310.825 91.951 310.51C91.533 310.187 91.005 310.026 90.367 310.026C89.6043 310.026 88.9517 310.297 88.409 310.84C87.8663 311.375 87.595 312.127 87.595 313.095C87.595 314.063 87.8663 314.818 88.409 315.361C88.9517 315.904 89.6043 316.175 90.367 316.175C91.005 316.175 91.5367 316.006 91.962 315.669C92.3873 315.324 92.6843 314.87 92.853 314.305L93.81 314.657C93.5973 315.412 93.1867 316.021 92.578 316.483C91.9767 316.938 91.2397 317.165 90.367 317.165ZM98.6222 316.362C98.4828 316.626 98.2702 316.828 97.9842 316.967C97.6982 317.099 97.3902 317.165 97.0602 317.165C96.4588 317.165 95.9785 316.967 95.6192 316.571C95.2598 316.168 95.0802 315.658 95.0802 315.042V311.709H96.1142V314.888C96.1142 315.284 96.2095 315.61 96.4002 315.867C96.5982 316.124 96.9025 316.252 97.3132 316.252C97.7238 316.252 98.0355 316.131 98.2482 315.889C98.4608 315.64 98.5672 315.31 98.5672 314.899V311.709H99.6012V316.021C99.6012 316.366 99.6195 316.692 99.6562 317H98.6662C98.6368 316.839 98.6222 316.626 98.6222 316.362ZM102.62 317H101.586V309.036H102.62V317ZM105.985 310.037V311.709H107.129V312.644H105.985V315.394C105.985 315.643 106.04 315.827 106.15 315.944C106.267 316.061 106.458 316.12 106.722 316.12C106.876 316.12 107.011 316.105 107.129 316.076V316.956C106.953 317.022 106.718 317.055 106.425 317.055C105.97 317.055 105.611 316.923 105.347 316.659C105.083 316.395 104.951 316.025 104.951 315.548V312.644H103.939V311.709H104.225C104.496 311.709 104.698 311.636 104.83 311.489C104.969 311.335 105.039 311.137 105.039 310.895V310.037H105.985ZM112.216 316.362C112.076 316.626 111.864 316.828 111.578 316.967C111.292 317.099 110.984 317.165 110.654 317.165C110.052 317.165 109.572 316.967 109.213 316.571C108.853 316.168 108.674 315.658 108.674 315.042V311.709H109.708V314.888C109.708 315.284 109.803 315.61 109.994 315.867C110.192 316.124 110.496 316.252 110.907 316.252C111.317 316.252 111.629 316.131 111.842 315.889C112.054 315.64 112.161 315.31 112.161 314.899V311.709H113.195V316.021C113.195 316.366 113.213 316.692 113.25 317H112.26C112.23 316.839 112.216 316.626 112.216 316.362ZM118.116 311.654V312.754C117.962 312.732 117.812 312.721 117.665 312.721C116.697 312.721 116.213 313.264 116.213 314.349V317H115.179V311.709H116.191V312.633C116.514 311.958 117.042 311.621 117.775 311.621C117.893 311.621 118.006 311.632 118.116 311.654ZM120.056 313.81H122.949C122.934 313.414 122.802 313.091 122.553 312.842C122.303 312.585 121.951 312.457 121.497 312.457C121.086 312.457 120.749 312.593 120.485 312.864C120.221 313.128 120.078 313.443 120.056 313.81ZM123.103 315.185L123.994 315.493C123.84 315.984 123.554 316.388 123.136 316.703C122.718 317.011 122.212 317.165 121.618 317.165C120.877 317.165 120.246 316.912 119.726 316.406C119.212 315.893 118.956 315.203 118.956 314.338C118.956 313.531 119.205 312.864 119.704 312.336C120.202 311.808 120.796 311.544 121.486 311.544C122.285 311.544 122.908 311.797 123.356 312.303C123.803 312.802 124.027 313.473 124.027 314.316C124.027 314.448 124.019 314.558 124.005 314.646H120.023C120.03 315.115 120.184 315.5 120.485 315.801C120.793 316.102 121.17 316.252 121.618 316.252C122.373 316.252 122.868 315.896 123.103 315.185Z" fill="#2B3245"/>
<circle cx="70" cy="312" r="7.4" stroke="#603495" stroke-width="1.2"/>
<path d="M91.731 340H86.99V332.201H91.731V333.202H88.068V335.6H91.39V336.612H88.068V338.999H91.731V340ZM94.3645 336.942V340H93.3305V334.709H94.3425V335.468C94.6945 334.859 95.2371 334.555 95.9705 334.555C96.5791 334.555 97.0448 334.749 97.3675 335.138C97.6975 335.527 97.8625 336.029 97.8625 336.645V340H96.8285V336.821C96.8285 335.934 96.4178 335.49 95.5965 335.49C95.2078 335.49 94.9035 335.629 94.6835 335.908C94.4708 336.179 94.3645 336.524 94.3645 336.942ZM104.259 334.709L102.147 340H101.102L98.9572 334.709H100.123L101.63 338.79L103.148 334.709H104.259ZM106.492 340H105.469V334.709H106.492V340ZM105.447 333.235C105.307 333.088 105.238 332.912 105.238 332.707C105.238 332.502 105.307 332.326 105.447 332.179C105.593 332.032 105.769 331.959 105.975 331.959C106.18 331.959 106.356 332.032 106.503 332.179C106.649 332.318 106.723 332.494 106.723 332.707C106.723 332.912 106.649 333.088 106.503 333.235C106.356 333.374 106.18 333.444 105.975 333.444C105.769 333.444 105.593 333.374 105.447 333.235ZM111.408 334.654V335.754C111.254 335.732 111.104 335.721 110.957 335.721C109.989 335.721 109.505 336.264 109.505 337.349V340H108.471V334.709H109.483V335.633C109.806 334.958 110.334 334.621 111.067 334.621C111.184 334.621 111.298 334.632 111.408 334.654ZM113.765 338.746C114.088 339.076 114.48 339.241 114.942 339.241C115.404 339.241 115.793 339.076 116.108 338.746C116.431 338.409 116.592 337.943 116.592 337.349C116.592 336.762 116.431 336.304 116.108 335.974C115.793 335.637 115.404 335.468 114.942 335.468C114.48 335.468 114.088 335.637 113.765 335.974C113.45 336.304 113.292 336.762 113.292 337.349C113.292 337.943 113.45 338.409 113.765 338.746ZM112.995 335.347C113.509 334.812 114.158 334.544 114.942 334.544C115.727 334.544 116.372 334.812 116.878 335.347C117.392 335.875 117.648 336.542 117.648 337.349C117.648 338.163 117.395 338.838 116.889 339.373C116.383 339.901 115.734 340.165 114.942 340.165C114.15 340.165 113.501 339.901 112.995 339.373C112.489 338.838 112.236 338.163 112.236 337.349C112.236 336.542 112.489 335.875 112.995 335.347ZM120.225 336.942V340H119.191V334.709H120.203V335.468C120.555 334.859 121.098 334.555 121.831 334.555C122.44 334.555 122.906 334.749 123.228 335.138C123.558 335.527 123.723 336.029 123.723 336.645V340H122.689V336.821C122.689 335.934 122.279 335.49 121.457 335.49C121.069 335.49 120.764 335.629 120.544 335.908C120.332 336.179 120.225 336.524 120.225 336.942ZM126.611 340H125.588V334.709H126.578V335.413C126.739 335.134 126.967 334.922 127.26 334.775C127.553 334.628 127.861 334.555 128.184 334.555C128.529 334.555 128.844 334.639 129.13 334.808C129.416 334.977 129.629 335.226 129.768 335.556C130.135 334.889 130.725 334.555 131.539 334.555C132.045 334.555 132.474 334.727 132.826 335.072C133.185 335.417 133.365 335.915 133.365 336.568V340H132.342V336.678C132.342 336.311 132.247 336.018 132.056 335.798C131.873 335.578 131.594 335.468 131.22 335.468C130.861 335.468 130.567 335.596 130.34 335.853C130.113 336.102 129.999 336.418 129.999 336.799V340H128.965V336.678C128.965 336.311 128.87 336.018 128.679 335.798C128.496 335.578 128.217 335.468 127.843 335.468C127.476 335.468 127.179 335.593 126.952 335.842C126.725 336.091 126.611 336.414 126.611 336.81V340ZM135.911 336.81H138.804C138.789 336.414 138.657 336.091 138.408 335.842C138.158 335.585 137.806 335.457 137.352 335.457C136.941 335.457 136.604 335.593 136.34 335.864C136.076 336.128 135.933 336.443 135.911 336.81ZM138.958 338.185L139.849 338.493C139.695 338.984 139.409 339.388 138.991 339.703C138.573 340.011 138.067 340.165 137.473 340.165C136.732 340.165 136.101 339.912 135.581 339.406C135.067 338.893 134.811 338.203 134.811 337.338C134.811 336.531 135.06 335.864 135.559 335.336C136.057 334.808 136.651 334.544 137.341 334.544C138.14 334.544 138.763 334.797 139.211 335.303C139.658 335.802 139.882 336.473 139.882 337.316C139.882 337.448 139.874 337.558 139.86 337.646H135.878C135.885 338.115 136.039 338.5 136.34 338.801C136.648 339.102 137.025 339.252 137.473 339.252C138.228 339.252 138.723 338.896 138.958 338.185ZM142.456 336.942V340H141.422V334.709H142.434V335.468C142.786 334.859 143.328 334.555 144.062 334.555C144.67 334.555 145.136 334.749 145.459 335.138C145.789 335.527 145.954 336.029 145.954 336.645V340H144.92V336.821C144.92 335.934 144.509 335.49 143.688 335.49C143.299 335.49 142.995 335.629 142.775 335.908C142.562 336.179 142.456 336.524 142.456 336.942ZM149.204 333.037V334.709H150.348V335.644H149.204V338.394C149.204 338.643 149.259 338.827 149.369 338.944C149.487 339.061 149.677 339.12 149.941 339.12C150.095 339.12 150.231 339.105 150.348 339.076V339.956C150.172 340.022 149.938 340.055 149.644 340.055C149.19 340.055 148.83 339.923 148.566 339.659C148.302 339.395 148.17 339.025 148.17 338.548V335.644H147.158V334.709H147.444C147.716 334.709 147.917 334.636 148.049 334.489C148.189 334.335 148.258 334.137 148.258 333.895V333.037H149.204Z" fill="#2B3245"/>
<circle cx="70" cy="335" r="7.4" stroke="#603495" stroke-width="1.2"/>
<path d="M88.068 363H86.99V355.201H91.731V356.202H88.068V358.71H91.39V359.722H88.068V363ZM92.4419 361.581C92.4419 361.126 92.5885 360.763 92.8819 360.492C93.1752 360.213 93.5639 360.041 94.0479 359.975L95.4779 359.766C95.7492 359.729 95.8849 359.597 95.8849 359.37C95.8849 359.091 95.7895 358.864 95.5989 358.688C95.4082 358.512 95.1222 358.424 94.7409 358.424C94.3889 358.424 94.1102 358.523 93.9049 358.721C93.6995 358.912 93.5785 359.168 93.5419 359.491L92.5519 359.26C92.6032 358.754 92.8342 358.343 93.2449 358.028C93.6555 357.705 94.1469 357.544 94.7189 357.544C95.4669 357.544 96.0205 357.727 96.3799 358.094C96.7392 358.453 96.9189 358.915 96.9189 359.48V362.131C96.9189 362.446 96.9409 362.736 96.9849 363H95.9729C95.9362 362.78 95.9179 362.542 95.9179 362.285C95.7712 362.52 95.5549 362.725 95.2689 362.901C94.9902 363.077 94.6382 363.165 94.2129 363.165C93.6922 363.165 93.2669 363.011 92.9369 362.703C92.6069 362.388 92.4419 362.014 92.4419 361.581ZM94.3559 362.296C94.8179 362.296 95.1882 362.171 95.4669 361.922C95.7455 361.673 95.8849 361.277 95.8849 360.734V360.492L94.2679 360.734C94.0332 360.771 93.8462 360.855 93.7069 360.987C93.5675 361.119 93.4979 361.299 93.4979 361.526C93.4979 361.731 93.5749 361.911 93.7289 362.065C93.8902 362.219 94.0992 362.296 94.3559 362.296ZM99.7727 363H98.7497V357.709H99.7397V358.413C99.901 358.134 100.128 357.922 100.422 357.775C100.715 357.628 101.023 357.555 101.346 357.555C101.69 357.555 102.006 357.639 102.292 357.808C102.578 357.977 102.79 358.226 102.93 358.556C103.296 357.889 103.887 357.555 104.701 357.555C105.207 357.555 105.636 357.727 105.988 358.072C106.347 358.417 106.527 358.915 106.527 359.568V363H105.504V359.678C105.504 359.311 105.408 359.018 105.218 358.798C105.034 358.578 104.756 358.468 104.382 358.468C104.022 358.468 103.729 358.596 103.502 358.853C103.274 359.102 103.161 359.418 103.161 359.799V363H102.127V359.678C102.127 359.311 102.031 359.018 101.841 358.798C101.657 358.578 101.379 358.468 101.005 358.468C100.638 358.468 100.341 358.593 100.114 358.842C99.8864 359.091 99.7727 359.414 99.7727 359.81V363ZM109.424 363H108.401V357.709H109.424V363ZM108.379 356.235C108.24 356.088 108.17 355.912 108.17 355.707C108.17 355.502 108.24 355.326 108.379 355.179C108.526 355.032 108.702 354.959 108.907 354.959C109.113 354.959 109.289 355.032 109.435 355.179C109.582 355.318 109.655 355.494 109.655 355.707C109.655 355.912 109.582 356.088 109.435 356.235C109.289 356.374 109.113 356.444 108.907 356.444C108.702 356.444 108.526 356.374 108.379 356.235ZM112.438 363H111.404V355.036H112.438V363ZM115.737 365.211H114.604L115.924 362.417L113.647 357.709H114.835L116.485 361.361L118.069 357.709H119.18L115.737 365.211ZM128.248 363L127.258 361.966C126.561 362.743 125.832 363.132 125.069 363.132C124.372 363.132 123.822 362.934 123.419 362.538C123.016 362.142 122.814 361.676 122.814 361.141C122.814 360.672 122.924 360.279 123.144 359.964C123.371 359.649 123.72 359.315 124.189 358.963L124.299 358.875L124.156 358.721C123.973 358.53 123.83 358.376 123.727 358.259C123.632 358.134 123.522 357.951 123.397 357.709C123.28 357.46 123.221 357.218 123.221 356.983C123.221 356.389 123.423 355.916 123.826 355.564C124.237 355.212 124.706 355.036 125.234 355.036C125.835 355.036 126.33 355.212 126.719 355.564C127.108 355.909 127.302 356.367 127.302 356.939C127.302 357.548 126.935 358.123 126.202 358.666L125.806 358.963L127.258 360.47L128.996 358.534V359.953L127.94 361.174L129.711 363H128.248ZM125.08 362.142C125.351 362.142 125.597 362.069 125.817 361.922C126.044 361.775 126.283 361.563 126.532 361.284L126.565 361.24L124.981 359.579L124.585 359.876C124.145 360.213 123.925 360.606 123.925 361.053C123.925 361.332 124.031 361.585 124.244 361.812C124.464 362.032 124.743 362.142 125.08 362.142ZM124.288 356.917C124.288 357.232 124.486 357.595 124.882 358.006L125.124 358.27L125.652 357.874C126.041 357.588 126.235 357.265 126.235 356.906C126.235 356.642 126.14 356.418 125.949 356.235C125.766 356.052 125.531 355.96 125.245 355.96C124.996 355.96 124.772 356.048 124.574 356.224C124.383 356.393 124.288 356.624 124.288 356.917ZM138.194 363H133.453V355.201H138.194V356.202H134.531V358.6H137.853V359.612H134.531V361.999H138.194V363ZM144.481 365.09H143.458V362.252C143.319 362.523 143.102 362.74 142.809 362.901C142.523 363.062 142.189 363.143 141.808 363.143C141.067 363.143 140.462 362.875 139.993 362.34C139.531 361.797 139.3 361.13 139.3 360.338C139.3 359.561 139.524 358.908 139.971 358.38C140.426 357.845 141.031 357.577 141.786 357.577C142.211 357.577 142.567 357.669 142.853 357.852C143.146 358.035 143.355 358.259 143.48 358.523V357.709H144.481V365.09ZM140.774 359.007C140.495 359.344 140.356 359.788 140.356 360.338C140.356 360.888 140.495 361.343 140.774 361.702C141.06 362.054 141.438 362.23 141.907 362.23C142.369 362.23 142.743 362.054 143.029 361.702C143.322 361.343 143.469 360.888 143.469 360.338C143.469 359.788 143.326 359.344 143.04 359.007C142.754 358.662 142.376 358.49 141.907 358.49C141.43 358.49 141.053 358.662 140.774 359.007ZM149.839 362.362C149.699 362.626 149.487 362.828 149.201 362.967C148.915 363.099 148.607 363.165 148.277 363.165C147.675 363.165 147.195 362.967 146.836 362.571C146.476 362.168 146.297 361.658 146.297 361.042V357.709H147.331V360.888C147.331 361.284 147.426 361.61 147.617 361.867C147.815 362.124 148.119 362.252 148.53 362.252C148.94 362.252 149.252 362.131 149.465 361.889C149.677 361.64 149.784 361.31 149.784 360.899V357.709H150.818V362.021C150.818 362.366 150.836 362.692 150.873 363H149.883C149.853 362.839 149.839 362.626 149.839 362.362ZM152.472 361.581C152.472 361.126 152.619 360.763 152.912 360.492C153.206 360.213 153.594 360.041 154.078 359.975L155.508 359.766C155.78 359.729 155.915 359.597 155.915 359.37C155.915 359.091 155.82 358.864 155.629 358.688C155.439 358.512 155.153 358.424 154.771 358.424C154.419 358.424 154.141 358.523 153.935 358.721C153.73 358.912 153.609 359.168 153.572 359.491L152.582 359.26C152.634 358.754 152.865 358.343 153.275 358.028C153.686 357.705 154.177 357.544 154.749 357.544C155.497 357.544 156.051 357.727 156.41 358.094C156.77 358.453 156.949 358.915 156.949 359.48V362.131C156.949 362.446 156.971 362.736 157.015 363H156.003C155.967 362.78 155.948 362.542 155.948 362.285C155.802 362.52 155.585 362.725 155.299 362.901C155.021 363.077 154.669 363.165 154.243 363.165C153.723 363.165 153.297 363.011 152.967 362.703C152.637 362.388 152.472 362.014 152.472 361.581ZM154.386 362.296C154.848 362.296 155.219 362.171 155.497 361.922C155.776 361.673 155.915 361.277 155.915 360.734V360.492L154.298 360.734C154.064 360.771 153.877 360.855 153.737 360.987C153.598 361.119 153.528 361.299 153.528 361.526C153.528 361.731 153.605 361.911 153.759 362.065C153.921 362.219 154.13 362.296 154.386 362.296ZM159.814 363H158.78V355.036H159.814V363ZM162.816 363H161.793V357.709H162.816V363ZM161.771 356.235C161.632 356.088 161.562 355.912 161.562 355.707C161.562 355.502 161.632 355.326 161.771 355.179C161.918 355.032 162.094 354.959 162.299 354.959C162.504 354.959 162.68 355.032 162.827 355.179C162.974 355.318 163.047 355.494 163.047 355.707C163.047 355.912 162.974 356.088 162.827 356.235C162.68 356.374 162.504 356.444 162.299 356.444C162.094 356.444 161.918 356.374 161.771 356.235ZM166.181 356.037V357.709H167.325V358.644H166.181V361.394C166.181 361.643 166.236 361.827 166.346 361.944C166.464 362.061 166.654 362.12 166.918 362.12C167.072 362.12 167.208 362.105 167.325 362.076V362.956C167.149 363.022 166.915 363.055 166.621 363.055C166.167 363.055 165.807 362.923 165.543 362.659C165.279 362.395 165.147 362.025 165.147 361.548V358.644H164.135V357.709H164.421C164.693 357.709 164.894 357.636 165.026 357.489C165.166 357.335 165.235 357.137 165.235 356.895V356.037H166.181ZM170.299 365.211H169.166L170.486 362.417L168.209 357.709H169.397L171.047 361.361L172.631 357.709H173.742L170.299 365.211Z" fill="#2B3245"/>
<circle cx="70" cy="358" r="7.4" stroke="#603495" stroke-width="1.2"/>
<path d="M93.128 386H92.05V382.535H88.068V386H86.99V378.201H88.068V381.534H92.05V378.201H93.128V386ZM95.8921 382.81H98.7851C98.7704 382.414 98.6384 382.091 98.3891 381.842C98.1398 381.585 97.7878 381.457 97.3331 381.457C96.9224 381.457 96.5851 381.593 96.3211 381.864C96.0571 382.128 95.9141 382.443 95.8921 382.81ZM98.9391 384.185L99.8301 384.493C99.6761 384.984 99.3901 385.388 98.9721 385.703C98.5541 386.011 98.0481 386.165 97.4541 386.165C96.7134 386.165 96.0828 385.912 95.5621 385.406C95.0488 384.893 94.7921 384.203 94.7921 383.338C94.7921 382.531 95.0414 381.864 95.5401 381.336C96.0388 380.808 96.6328 380.544 97.3221 380.544C98.1214 380.544 98.7448 380.797 99.1921 381.303C99.6394 381.802 99.8631 382.473 99.8631 383.316C99.8631 383.448 99.8558 383.558 99.8411 383.646H95.8591C95.8664 384.115 96.0204 384.5 96.3211 384.801C96.6291 385.102 97.0068 385.252 97.4541 385.252C98.2094 385.252 98.7044 384.896 98.9391 384.185ZM101.073 384.581C101.073 384.126 101.22 383.763 101.513 383.492C101.806 383.213 102.195 383.041 102.679 382.975L104.109 382.766C104.38 382.729 104.516 382.597 104.516 382.37C104.516 382.091 104.421 381.864 104.23 381.688C104.039 381.512 103.753 381.424 103.372 381.424C103.02 381.424 102.741 381.523 102.536 381.721C102.331 381.912 102.21 382.168 102.173 382.491L101.183 382.26C101.234 381.754 101.465 381.343 101.876 381.028C102.287 380.705 102.778 380.544 103.35 380.544C104.098 380.544 104.652 380.727 105.011 381.094C105.37 381.453 105.55 381.915 105.55 382.48V385.131C105.55 385.446 105.572 385.736 105.616 386H104.604C104.567 385.78 104.549 385.542 104.549 385.285C104.402 385.52 104.186 385.725 103.9 385.901C103.621 386.077 103.269 386.165 102.844 386.165C102.323 386.165 101.898 386.011 101.568 385.703C101.238 385.388 101.073 385.014 101.073 384.581ZM102.987 385.296C103.449 385.296 103.819 385.171 104.098 384.922C104.377 384.673 104.516 384.277 104.516 383.734V383.492L102.899 383.734C102.664 383.771 102.477 383.855 102.338 383.987C102.199 384.119 102.129 384.299 102.129 384.526C102.129 384.731 102.206 384.911 102.36 385.065C102.521 385.219 102.73 385.296 102.987 385.296ZM108.415 386H107.381V378.036H108.415V386ZM111.78 379.037V380.709H112.924V381.644H111.78V384.394C111.78 384.643 111.835 384.827 111.945 384.944C112.062 385.061 112.253 385.12 112.517 385.12C112.671 385.12 112.806 385.105 112.924 385.076V385.956C112.748 386.022 112.513 386.055 112.22 386.055C111.765 386.055 111.406 385.923 111.142 385.659C110.878 385.395 110.746 385.025 110.746 384.548V381.644H109.734V380.709H110.02C110.291 380.709 110.493 380.636 110.625 380.489C110.764 380.335 110.834 380.137 110.834 379.895V379.037H111.78ZM115.558 382.887V386H114.524V378.036H115.558V381.325C115.91 380.812 116.445 380.555 117.164 380.555C117.773 380.555 118.238 380.749 118.561 381.138C118.891 381.527 119.056 382.029 119.056 382.645V386H118.022V382.821C118.022 381.934 117.611 381.49 116.79 381.49C116.409 381.49 116.112 381.622 115.899 381.886C115.686 382.143 115.573 382.476 115.558 382.887Z" fill="#2B3245"/>
<circle cx="70" cy="381" r="7.4" stroke="#603495" stroke-width="1.2"/>
<path d="M91.731 409H86.99V401.201H91.731V402.202H88.068V404.6H91.39V405.612H88.068V407.999H91.731V409ZM93.8928 406.338C93.8928 406.895 94.0284 407.35 94.2998 407.702C94.5784 408.054 94.9598 408.23 95.4438 408.23C95.9058 408.23 96.2761 408.05 96.5548 407.691C96.8334 407.332 96.9728 406.873 96.9728 406.316C96.9728 405.766 96.8371 405.322 96.5658 404.985C96.2944 404.648 95.9241 404.479 95.4548 404.479C94.9854 404.479 94.6078 404.651 94.3218 404.996C94.0358 405.341 93.8928 405.788 93.8928 406.338ZM96.9838 408.285V408.197C96.8444 408.468 96.6318 408.696 96.3458 408.879C96.0671 409.055 95.7334 409.143 95.3448 409.143C94.5894 409.143 93.9808 408.879 93.5188 408.351C93.0641 407.816 92.8368 407.145 92.8368 406.338C92.8368 405.568 93.0714 404.915 93.5408 404.38C94.0101 403.837 94.6114 403.566 95.3448 403.566C95.7774 403.566 96.1294 403.654 96.4008 403.83C96.6721 403.999 96.8591 404.208 96.9618 404.457V401.036H97.9848V408.021C97.9848 408.38 98.0031 408.707 98.0398 409H97.0388C97.0021 408.795 96.9838 408.556 96.9838 408.285ZM103.397 408.362C103.258 408.626 103.045 408.828 102.759 408.967C102.473 409.099 102.165 409.165 101.835 409.165C101.234 409.165 100.753 408.967 100.394 408.571C100.035 408.168 99.8548 407.658 99.8548 407.042V403.709H100.889V406.888C100.889 407.284 100.984 407.61 101.175 407.867C101.373 408.124 101.677 408.252 102.088 408.252C102.499 408.252 102.81 408.131 103.023 407.889C103.236 407.64 103.342 407.31 103.342 406.899V403.709H104.376V408.021C104.376 408.366 104.394 408.692 104.431 409H103.441C103.412 408.839 103.397 408.626 103.397 408.362ZM108.529 404.501C108.081 404.501 107.7 404.662 107.385 404.985C107.077 405.308 106.923 405.762 106.923 406.349C106.923 406.928 107.077 407.383 107.385 407.713C107.7 408.043 108.085 408.208 108.54 408.208C108.98 408.208 109.313 408.098 109.541 407.878C109.775 407.658 109.933 407.405 110.014 407.119L110.927 407.515C110.78 407.955 110.501 408.34 110.091 408.67C109.687 409 109.17 409.165 108.54 409.165C107.77 409.165 107.132 408.897 106.626 408.362C106.12 407.827 105.867 407.156 105.867 406.349C105.867 405.528 106.12 404.857 106.626 404.336C107.132 403.808 107.766 403.544 108.529 403.544C109.174 403.544 109.695 403.709 110.091 404.039C110.494 404.369 110.758 404.765 110.883 405.227L109.948 405.623C109.867 405.315 109.713 405.051 109.486 404.831C109.258 404.611 108.939 404.501 108.529 404.501ZM111.976 407.581C111.976 407.126 112.123 406.763 112.416 406.492C112.709 406.213 113.098 406.041 113.582 405.975L115.012 405.766C115.283 405.729 115.419 405.597 115.419 405.37C115.419 405.091 115.324 404.864 115.133 404.688C114.942 404.512 114.656 404.424 114.275 404.424C113.923 404.424 113.644 404.523 113.439 404.721C113.234 404.912 113.113 405.168 113.076 405.491L112.086 405.26C112.137 404.754 112.368 404.343 112.779 404.028C113.19 403.705 113.681 403.544 114.253 403.544C115.001 403.544 115.555 403.727 115.914 404.094C116.273 404.453 116.453 404.915 116.453 405.48V408.131C116.453 408.446 116.475 408.736 116.519 409H115.507C115.47 408.78 115.452 408.542 115.452 408.285C115.305 408.52 115.089 408.725 114.803 408.901C114.524 409.077 114.172 409.165 113.747 409.165C113.226 409.165 112.801 409.011 112.471 408.703C112.141 408.388 111.976 408.014 111.976 407.581ZM113.89 408.296C114.352 408.296 114.722 408.171 115.001 407.922C115.28 407.673 115.419 407.277 115.419 406.734V406.492L113.802 406.734C113.567 406.771 113.38 406.855 113.241 406.987C113.102 407.119 113.032 407.299 113.032 407.526C113.032 407.731 113.109 407.911 113.263 408.065C113.424 408.219 113.633 408.296 113.89 408.296ZM119.67 402.037V403.709H120.814V404.644H119.67V407.394C119.67 407.643 119.725 407.827 119.835 407.944C119.952 408.061 120.143 408.12 120.407 408.12C120.561 408.12 120.696 408.105 120.814 408.076V408.956C120.638 409.022 120.403 409.055 120.11 409.055C119.655 409.055 119.296 408.923 119.032 408.659C118.768 408.395 118.636 408.025 118.636 407.548V404.644H117.624V403.709H117.91C118.181 403.709 118.383 403.636 118.515 403.489C118.654 403.335 118.724 403.137 118.724 402.895V402.037H119.67ZM123.437 409H122.414V403.709H123.437V409ZM122.392 402.235C122.253 402.088 122.183 401.912 122.183 401.707C122.183 401.502 122.253 401.326 122.392 401.179C122.539 401.032 122.715 400.959 122.92 400.959C123.125 400.959 123.301 401.032 123.448 401.179C123.595 401.318 123.668 401.494 123.668 401.707C123.668 401.912 123.595 402.088 123.448 402.235C123.301 402.374 123.125 402.444 122.92 402.444C122.715 402.444 122.539 402.374 122.392 402.235ZM126.505 407.746C126.828 408.076 127.22 408.241 127.682 408.241C128.144 408.241 128.533 408.076 128.848 407.746C129.171 407.409 129.332 406.943 129.332 406.349C129.332 405.762 129.171 405.304 128.848 404.974C128.533 404.637 128.144 404.468 127.682 404.468C127.22 404.468 126.828 404.637 126.505 404.974C126.19 405.304 126.032 405.762 126.032 406.349C126.032 406.943 126.19 407.409 126.505 407.746ZM125.735 404.347C126.248 403.812 126.897 403.544 127.682 403.544C128.467 403.544 129.112 403.812 129.618 404.347C130.131 404.875 130.388 405.542 130.388 406.349C130.388 407.163 130.135 407.838 129.629 408.373C129.123 408.901 128.474 409.165 127.682 409.165C126.89 409.165 126.241 408.901 125.735 408.373C125.229 407.838 124.976 407.163 124.976 406.349C124.976 405.542 125.229 404.875 125.735 404.347ZM132.965 405.942V409H131.931V403.709H132.943V404.468C133.295 403.859 133.838 403.555 134.571 403.555C135.18 403.555 135.645 403.749 135.968 404.138C136.298 404.527 136.463 405.029 136.463 405.645V409H135.429V405.821C135.429 404.934 135.018 404.49 134.197 404.49C133.808 404.49 133.504 404.629 133.284 404.908C133.071 405.179 132.965 405.524 132.965 405.942Z" fill="#2B3245"/>
<circle cx="70" cy="404" r="7.4" stroke="#603495" stroke-width="1.2"/>
<rect x="135" y="432" width="110" height="27.7391" rx="4" fill="#603495"/>
<path d="M173.612 444.484L172.316 444.892C172.26 444.564 172.096 444.264 171.824 443.992C171.552 443.72 171.16 443.584 170.648 443.584C170.224 443.584 169.872 443.704 169.592 443.944C169.32 444.184 169.184 444.472 169.184 444.808C169.184 445.392 169.516 445.756 170.18 445.9L171.404 446.152C172.14 446.296 172.708 446.588 173.108 447.028C173.508 447.468 173.708 447.992 173.708 448.6C173.708 449.304 173.436 449.912 172.892 450.424C172.356 450.928 171.624 451.18 170.696 451.18C169.696 451.18 168.916 450.92 168.356 450.4C167.796 449.872 167.48 449.26 167.408 448.564L168.752 448.18C168.8 448.66 168.992 449.064 169.328 449.392C169.664 449.72 170.12 449.884 170.696 449.884C171.192 449.884 171.572 449.776 171.836 449.56C172.108 449.336 172.244 449.052 172.244 448.708C172.244 448.428 172.144 448.188 171.944 447.988C171.744 447.78 171.464 447.636 171.104 447.556L169.904 447.304C169.24 447.168 168.712 446.892 168.32 446.476C167.936 446.06 167.744 445.54 167.744 444.916C167.744 444.204 168.028 443.592 168.596 443.08C169.164 442.568 169.844 442.312 170.636 442.312C171.54 442.312 172.232 442.532 172.712 442.972C173.192 443.404 173.492 443.908 173.612 444.484ZM180.76 450.352C180.168 450.904 179.408 451.18 178.48 451.18C177.552 451.18 176.792 450.904 176.2 450.352C175.608 449.8 175.312 449.028 175.312 448.036V442.492H176.74V447.952C176.74 448.544 176.892 449.004 177.196 449.332C177.508 449.652 177.936 449.812 178.48 449.812C179.032 449.812 179.46 449.652 179.764 449.332C180.068 449.012 180.22 448.552 180.22 447.952V442.492H181.66V448.036C181.66 449.028 181.36 449.8 180.76 450.352ZM183.84 442.492H186.768C187.568 442.492 188.2 442.704 188.664 443.128C189.128 443.552 189.36 444.104 189.36 444.784C189.36 445.224 189.244 445.608 189.012 445.936C188.78 446.256 188.476 446.484 188.1 446.62C188.556 446.74 188.924 446.984 189.204 447.352C189.484 447.72 189.624 448.152 189.624 448.648C189.624 449.336 189.38 449.9 188.892 450.34C188.404 450.78 187.768 451 186.984 451H183.84V442.492ZM185.268 446.092H186.576C186.992 446.092 187.32 445.984 187.56 445.768C187.8 445.552 187.92 445.264 187.92 444.904C187.92 444.536 187.796 444.248 187.548 444.04C187.308 443.824 186.972 443.716 186.54 443.716H185.268V446.092ZM185.268 449.776H186.732C187.164 449.776 187.508 449.668 187.764 449.452C188.028 449.228 188.16 448.928 188.16 448.552C188.16 448.176 188.036 447.876 187.788 447.652C187.548 447.42 187.212 447.304 186.78 447.304H185.268V449.776ZM200.729 451H199.301V444.736L196.649 451H195.401L192.773 444.76V451H191.369V442.492H193.289L196.049 448.984L198.773 442.492H200.729V451ZM204.475 451H203.011V442.492H204.475V451ZM212.863 443.848H210.091V451H208.651V443.848H205.891V442.492H212.863V443.848Z" fill="white"/>
<rect width="380" height="19" fill="#DCE2E8"/>
<circle cx="19.9375" cy="9.5" r="5.5" fill="#B4B6B6"/>
<circle cx="35.1963" cy="9.5" r="5.5" fill="#B4B6B6"/>
<circle cx="50.1982" cy="9.5" r="5.5" fill="#B4B6B6"/>
<rect x="94" y="7" width="192.947" height="5.59266" fill="#B4B6B6"/>
</svg>
