<svg width="670" height="1783" viewBox="0 0 670 1783" fill="none" xmlns="http://www.w3.org/2000/svg">
<path d="M168.758 68.5C40.7578 237 -61.7422 932 43.7578 1394C78.0511 1544.18 228.536 1783 242.758 1783C389.363 1783 571.894 1783 624.467 1783C633.612 1783 642.035 1778.2 645.321 1769.67C689.626 1654.61 684.68 1247.25 522.258 1046.5C352.758 837 303.258 771.84 303.258 687.5C303.258 564.5 492.258 661 525.258 580C601.581 434.248 337.284 293.271 383.758 128.5C394.612 90.0181 449.554 58.847 441.712 2.29798C441.53 0.98345 440.447 0 439.12 0C417.476 0 305.868 0 242.758 0C222.137 0 182.052 51 168.758 68.5Z" fill="#11348E"/>
</svg>
