<svg width="399" height="445" viewBox="0 0 399 445" fill="none" xmlns="http://www.w3.org/2000/svg">
<path d="M243.934 304.141L215.521 408.424C215.029 410.221 215.94 412.031 217.429 412.24C218.061 412.275 218.684 412.083 219.188 411.7C219.691 411.316 220.041 410.766 220.175 410.147L251.566 308.216C251.777 307.607 251.804 306.951 251.644 306.327C251.484 305.703 251.145 305.14 250.668 304.708L247.701 302.381C246.347 301.298 244.463 302.196 243.934 304.141Z" fill="#738CBA"/>
<path d="M327.954 303.588L349.412 409.52C349.781 411.342 348.759 413.09 347.257 413.213C346.624 413.205 346.015 412.971 345.538 412.554C345.062 412.136 344.751 411.562 344.66 410.936L320.039 307.133C319.867 306.512 319.882 305.854 320.081 305.241C320.28 304.628 320.655 304.088 321.159 303.686L324.274 301.569C325.739 300.584 327.548 301.606 327.954 303.588Z" fill="#738CBA"/>
<path d="M291.023 323.088L296.513 431.039C296.599 432.885 295.282 434.461 293.829 434.363C293.205 434.26 292.638 433.939 292.23 433.456C291.822 432.973 291.599 432.361 291.601 431.728L282.701 325.451C282.625 324.812 282.738 324.164 283.027 323.588C283.316 323.013 283.767 322.535 284.326 322.213L287.723 320.576C289.262 319.801 290.924 321.069 291.023 323.088Z" fill="#738CBA"/>
<path d="M367.239 269.338L397.892 432.884C398.422 435.69 397.055 438.374 395.012 438.534C393.411 438.657 391.922 437.168 391.441 434.989L356.566 271.2C355.424 266.999 359.455 268.305 362.253 266.162C364.174 264.684 366.66 266.285 367.239 269.338Z" fill="#E1B694"/>
<path d="M31.267 269.338L0.613738 432.884C0.0966944 435.69 1.46318 438.374 3.49442 438.534C5.09479 438.657 6.58436 437.168 7.06447 434.989L42.4701 270.641C43.6117 266.44 39.0382 268.305 36.2405 266.162C34.3323 264.684 31.8456 266.285 31.267 269.338Z" fill="#E1B694"/>
<path d="M194.335 315.873C197.475 325.574 248.342 346.884 290.764 337.872C314.462 332.85 330.466 317.621 336.005 286.168C336.375 284.1 342.161 251.07 343.256 236.261C346.014 196.966 341.114 176.924 303.321 173.243C299.036 172.849 294.722 173.554 290.786 175.293C286.85 177.031 283.423 179.745 280.829 183.178C273.357 193.112 267.46 208.144 261.551 229.515C251.272 266.656 239.023 280.062 214.549 287.214C198.164 291.966 189.177 299.87 194.335 315.873Z" fill="#738CBA"/>
<path d="M194.335 315.873C197.363 325.242 244.931 345.419 286.405 338.685C289.284 338.211 291.969 336.93 294.149 334.992C305.006 325.316 313.845 312.328 319.471 295.155C329.615 264.243 337.248 236.852 337.543 215.702C337.851 194.208 324.593 176.85 299.147 173.846C297.048 173.61 294.923 173.799 292.899 174.401C290.875 175.004 288.993 176.009 287.365 177.355C273.418 188.976 267.927 203.601 257.02 243.229C248.181 276.8 229.383 282.315 214.548 287.165C198.262 292.483 189.176 299.87 194.335 315.873Z" fill="#93B3EE"/>
<path d="M90.1636 400.127L102.72 417.288L92.7365 423.677L82.0879 412.351L89.2649 398.453L90.1636 400.127Z" fill="#FFC3A3"/>
<path d="M195.936 405.629L197.376 416.918L180.769 421.165L175.66 407.574L195.936 405.629Z" fill="#FFC3A3"/>
<path d="M85.0302 406.122C86.8891 413.361 92.0964 419.725 96.9591 420.956C97.4414 421.759 97.6517 422.696 97.5585 423.627C97.4653 424.559 97.0737 425.435 96.442 426.127C94.2015 428.589 91.8625 431.051 89.4127 433.513C88.9385 433.995 88.3732 434.377 87.7497 434.638C87.1262 434.899 86.457 435.034 85.7811 435.034C85.1052 435.034 84.436 434.899 83.8125 434.638C83.1891 434.377 82.6237 433.995 82.1495 433.513L52.321 403.844C47.3968 398.994 52.6903 390.845 59.0672 393.393L59.2149 393.454C65.838 396.138 72.3503 399.093 78.9118 401.998C79.2319 402.22 85.0302 406.122 85.0302 406.122Z" fill="#2B3245"/>
<path d="M178.382 416.192C185.62 418.063 193.708 416.598 197.143 412.942C198.078 412.907 199 413.176 199.77 413.708C200.54 414.241 201.117 415.009 201.415 415.897C202.473 419.048 203.458 422.261 204.48 425.634C204.678 426.28 204.745 426.959 204.678 427.631C204.61 428.303 204.41 428.955 204.088 429.548C203.766 430.142 203.329 430.665 202.802 431.088C202.275 431.511 201.67 431.825 201.021 432.011L160.605 443.743C154.007 445.651 149.415 437.12 154.733 432.774L154.856 432.664C160.42 428.17 166.169 423.911 171.857 419.59C172.152 419.368 178.382 416.192 178.382 416.192Z" fill="#2B3245"/>
<path d="M144.527 330.584C142.89 333.773 104.272 379.347 85.5598 400.188C85.3007 400.49 85.1582 400.874 85.1582 401.272C85.1582 401.669 85.3007 402.054 85.5598 402.355L100.185 420.045C100.326 420.217 100.5 420.359 100.697 420.462C100.894 420.565 101.11 420.628 101.331 420.646C101.553 420.664 101.776 420.638 101.987 420.569C102.198 420.499 102.393 420.388 102.561 420.242C110.649 413.213 151.803 373.856 158.66 367.775L156.715 362.653" fill="#2B2F49"/>
<path d="M158.611 367.775C164.087 359.608 170.074 351.796 176.535 344.384C181.841 338.438 189.117 336.124 196.958 335.152C200.016 334.839 203.05 334.333 206.044 333.637C252.996 325.611 270.059 322.262 283.317 305.729C279.698 297.013 222.294 285.429 218.674 276.713C189.831 283.989 177.988 309.718 174.024 309.669L144.479 330.597L158.611 367.775Z" fill="#2B2F49"/>
<path d="M280.422 295.524C266.265 287.313 249.646 277.44 218.673 276.689C202.472 276.8 186.271 276.874 170.071 277.021C142.544 277.268 130.566 294.502 140.144 320.108C141.473 323.654 143.061 327.101 144.526 330.597C149.216 342.994 162.709 377.512 164.752 382.375C167.153 389.01 174.231 406.331 176.915 412.413C177.163 412.967 177.587 413.423 178.122 413.711C178.656 413.998 179.271 414.1 179.87 414.001L194.741 411.625C195.103 411.566 195.45 411.434 195.761 411.239C196.072 411.044 196.341 410.789 196.552 410.488C196.763 410.188 196.911 409.849 196.989 409.49C197.067 409.131 197.073 408.76 197.006 408.4C192.968 387.472 181.396 334.315 177.124 322.103C192.525 321.438 223.597 320.379 224.594 320.576C230.294 321.684 257.34 321.327 260.196 321.007C276.138 319.197 288.757 310.211 300.144 298.922L300.993 295.856C292.031 294.416 285.901 296.398 280.422 295.524Z" fill="#353D63"/>
<path d="M157.539 247.783C170.908 248.448 185.25 249.015 198.385 249.716C208.763 250.27 218.525 250.196 228.472 250.418C233.766 250.541 244.476 251.292 246.507 246.725C257.143 222.399 261.575 201.176 260.307 175.324C260.098 171.15 265.416 176.395 263.84 169.574C263.065 166.214 258.054 155.553 252.182 156.796C252.086 156.815 251.992 156.839 251.899 156.87C246.576 159.222 241.832 162.713 238.004 167.097C234.175 171.481 231.355 176.65 229.74 182.242C225.124 198.64 224.717 213.954 222.218 230.364C199.222 230.881 176.214 233.54 153.279 235.03C154.646 239.277 156.025 243.536 157.539 247.783Z" fill="#B52F43"/>
<path d="M283.317 154.556C292.023 156.074 300.03 160.295 306.202 166.62C325.554 189.21 313.588 245.888 305.562 291.548C305.254 293.255 304.591 294.879 303.617 296.315C302.642 297.75 301.378 298.965 299.904 299.882C298.431 300.798 296.782 301.396 295.063 301.635C293.345 301.875 291.595 301.751 289.928 301.273C282.87 299.413 276.166 296.406 270.083 292.372C250.928 278.831 226.257 277.932 215.978 277.44C214.464 269.032 229.52 217.77 230 214.188C233.016 188.668 237.78 161.585 253.895 156.808C260.948 158.926 273.788 164.269 283.317 154.556Z" fill="#CE364C"/>
<path d="M211.385 241.37C204.184 241.468 197.253 241.062 190.125 241.727C189.217 241.798 188.354 242.155 187.663 242.748C184.931 245.139 182.682 248.03 181.04 251.267C180.867 251.612 180.695 251.969 180.535 252.338C180.447 252.565 180.428 252.812 180.48 253.05C180.532 253.287 180.654 253.503 180.829 253.672C181.004 253.84 181.225 253.953 181.464 253.996C181.703 254.039 181.949 254.011 182.172 253.914L187.958 250.627C189.879 249.532 194.951 248.891 196.748 250.172C198.828 251.649 201.143 253.003 202.977 254.111C205.217 255.442 207.876 255.881 210.425 255.342C211.758 255.098 213.048 254.658 214.254 254.037" fill="#FFC3A3"/>
<path d="M211.84 253.533C211.891 253.765 212.015 253.975 212.195 254.13C212.375 254.286 212.6 254.378 212.838 254.394C225.973 255.416 241.964 256.857 254.977 257.829C265.465 258.629 275.966 259.442 286.492 259.516C292.093 259.516 303.591 261.559 305.93 256.266C318.351 228.136 320.579 209.486 316.788 187.007C316.172 183.313 316.48 184.889 314.67 178.389C313.76 175.133 311.941 172.204 309.426 169.944C306.558 167.359 305.622 166.78 300.809 168.467C298.247 169.502 296.007 171.202 294.321 173.391C283.623 188.878 282.367 226.006 280.779 237.504C280.734 237.79 280.581 238.047 280.352 238.223C280.123 238.399 279.836 238.481 279.548 238.452C260.418 237.923 233.088 239.683 209.945 240.631C209.796 240.657 209.654 240.713 209.528 240.797C209.403 240.881 209.297 240.99 209.216 241.118C209.136 241.246 209.084 241.389 209.063 241.539C209.042 241.688 209.053 241.841 209.095 241.985C209.76 244.595 211.299 251.231 211.84 253.533Z" fill="#E83C56"/>
<path d="M370.486 259.787H24.5475C23.1945 259.787 22.0977 260.883 22.0977 262.236V269.02C22.0977 270.373 23.1945 271.469 24.5475 271.469H370.486C371.839 271.469 372.936 270.373 372.936 269.02V262.236C372.936 260.883 371.839 259.787 370.486 259.787Z" fill="#E1B694"/>
<path d="M244.366 255.281H141.807C141.807 257.829 145.217 259.897 149.427 259.897H236.746C240.956 259.897 244.366 257.829 244.366 255.281V255.281Z" fill="#9598AC"/>
<path d="M189.239 255.281H86.6797C86.6797 257.829 90.0897 259.897 94.2999 259.897H181.619C185.829 259.897 189.239 257.829 189.239 255.281Z" fill="#738CBA"/>
<path d="M189.239 255.281H86.6796L75.8093 189.727C75.3785 187.105 77.7052 184.803 80.7336 184.803H173.247C174.37 184.747 175.477 185.085 176.377 185.76C177.276 186.434 177.911 187.402 178.172 188.496L189.239 255.281Z" fill="#DDDDEA"/>
<path d="M134.972 229.557C138.685 226.483 138.838 220.539 135.313 216.281C131.788 212.023 125.921 211.064 122.208 214.138C118.494 217.212 118.342 223.155 121.867 227.413C125.392 231.671 131.259 232.631 134.972 229.557Z" fill="white"/>
<path d="M255.544 150.555C255.015 153.386 253.956 156.575 253.217 159.418C252.985 160.256 252.923 161.131 253.034 161.993C253.144 162.855 253.425 163.686 253.861 164.438C254.297 165.19 254.878 165.848 255.57 166.372C256.263 166.897 257.053 167.278 257.895 167.494C267.14 169.611 280.054 161.548 283.317 155.725V140.386C277.506 147.699 264.444 152.167 255.544 150.555Z" fill="#FFC3A3"/>
<path d="M295.7 126.439C296.845 122.536 293.841 118.818 290.16 119.335C289.592 119.434 289.007 119.387 288.461 119.2C287.517 118.809 286.685 118.189 286.04 117.396C285.395 116.603 284.958 115.662 284.768 114.657C283.599 109.425 282.565 104.033 280.398 99.3185C275.154 87.9558 257.796 85.6538 248.723 94.0003C248.29 94.3448 247.919 94.7612 247.627 95.2314C246.985 96.1834 246.44 97.1981 246.002 98.2598C243.897 103.43 244.919 122.376 245.83 135.487C246.082 138.311 246.958 141.044 248.395 143.488C249.832 145.932 251.794 148.026 254.14 149.619C256.484 151.2 259.301 151.926 262.117 151.675C264.963 151.557 267.776 151.018 270.463 150.075C281.161 146.382 283.156 143.366 286.332 138.552C286.946 137.689 287.513 136.793 288.031 135.869C288.454 134.803 289.12 133.85 289.976 133.086C293.053 132.065 294.703 129.873 295.712 126.5L295.7 126.439Z" fill="#FFC3A3"/>
<path d="M240.021 94.1972C239.576 94.9416 239.293 95.7717 239.191 96.6331C239.089 97.4944 239.171 98.3676 239.43 99.1953C239.832 100.525 240.658 101.688 241.781 102.507C246.201 104.969 249.844 105.794 252.344 102.15L252.467 101.977C253.015 101.188 253.728 100.526 254.556 100.038C255.384 99.5497 256.308 99.246 257.264 99.1478C258.22 99.0496 259.187 99.1592 260.097 99.4691C261.007 99.779 261.839 100.282 262.537 100.943C264.543 102.778 267.005 104.28 269.591 104.181H269.812C275.192 103.849 275.192 103.849 280.892 110.139C282.511 112.129 283.561 114.52 283.932 117.058C284.281 120.264 283.837 123.506 282.64 126.5C282.481 126.891 282.401 127.309 282.406 127.731C282.388 127.963 282.445 128.194 282.569 128.391C282.693 128.588 282.877 128.739 283.094 128.824C283.31 128.908 283.548 128.92 283.773 128.858C283.997 128.797 284.195 128.665 284.339 128.482C286.875 125.885 291.294 118.474 294.31 121.724C296.662 125.971 294.704 130.784 289.386 133.382C287.552 134.268 285.397 138.351 284.339 140C283.714 140.981 283.326 142.094 283.206 143.25C283.378 145.565 293.165 138.478 296.206 134.81C296.811 134.075 297.343 133.284 297.794 132.446C299.21 129.812 298.176 128.667 299.148 125.823C300.072 123.65 300.67 121.351 300.921 119.003C301.401 112.134 300.158 108.797 298.693 106.815C297.658 105.365 296.906 103.732 296.477 102.002C296.181 100.894 295.824 99.7492 295.418 98.6413C294.577 96.2859 293.249 94.1344 291.52 92.3271C289.791 90.5199 287.701 89.0974 285.385 88.1527C282.621 87.1835 279.693 86.7653 276.768 86.9216C273.116 86.9386 269.489 86.3264 266.045 85.112C263.278 84.1436 260.448 83.3621 257.576 82.773C255.439 82.3221 253.243 82.2264 251.076 82.4898C249.013 82.5975 247.047 83.4003 245.499 84.7673C244.342 85.7891 243.948 87.7341 242.901 89.95C242.027 91.4224 241.065 92.8407 240.021 94.1972Z" fill="#744C34"/>
<path d="M255.618 150.506H255.556C255.396 151.183 255.284 152.483 255.1 153.136C256.829 153.56 258.6 153.787 260.381 153.813C264.313 153.806 268.208 153.045 271.854 151.572C275.897 149.842 279.723 147.069 283.317 144.535C283.317 144.129 283.317 143.23 283.317 142.812C278.885 146.972 274.305 148.708 268.605 150.715C266.503 151.306 264.338 151.649 262.155 151.737C259.906 151.904 257.652 151.48 255.618 150.506Z" fill="#F59F75"/>
<path d="M277.053 117.847C278.122 118.111 276.519 115.657 272.791 115.201L272.511 115.162C271.283 115.002 270.036 115.091 268.843 115.423C267.898 115.686 267.381 115.737 267.37 116.071C273.439 115.542 274.832 116.499 277.053 117.847Z" fill="#7E5439" stroke="#7E5439" stroke-width="0.2"/>
<path d="M271.797 122.894C270.809 122.753 270.133 121.563 270.291 120.193C270.449 118.822 271.394 117.863 272.381 118.003C273.368 118.144 274.044 119.334 273.886 120.704C273.729 122.075 272.8 123.012 271.797 122.894Z" fill="#342525"/>
<path d="M249.146 112.981C248.197 112.92 250.438 111.063 254 111.719L254.293 111.761C255.514 111.97 256.68 112.423 257.722 113.094C258.54 113.634 259.021 113.839 258.925 114.161C253.36 111.852 251.722 112.352 249.146 112.981Z" fill="#7E5439" stroke="#7E5439" stroke-width="0.2"/>
<path d="M253.56 119.453C252.559 119.41 251.791 118.256 251.837 116.882C251.883 115.508 252.746 114.425 253.746 114.48C254.745 114.535 255.515 115.677 255.469 117.051C255.423 118.424 254.562 119.496 253.56 119.453Z" fill="#342525"/>
<path d="M257.005 137.799C256.009 137.806 258.225 139.887 262.008 139.344L262.3 139.299C263.603 139.117 264.858 138.678 265.99 138.008C266.887 137.477 267.341 137.255 267.322 136.954C264.928 137.87 262.955 139.591 257.005 137.799Z" fill="#7E5439" stroke="#7E5439" stroke-width="0.2"/>
<path d="M260.034 128.133C259.64 128.985 258.822 130.448 259.707 131.395C260.996 132.821 262.744 132.337 264.448 132.069C264.664 132.473 264.283 132.705 264.013 132.766C263.105 133.013 262.163 133.114 261.223 133.065C260.803 133.045 260.394 132.927 260.028 132.721C259.569 132.478 259.172 132.133 258.867 131.713C258.563 131.292 258.359 130.807 258.272 130.295C258.297 129.634 258.487 128.99 258.825 128.421C260.737 124.09 262.08 119.529 262.82 114.852C262.928 114.706 262.451 118.841 262.399 119.38C262.101 122.409 261.302 125.367 260.034 128.133V128.133Z" fill="#7E5439"/>
<ellipse cx="134.885" cy="41.6538" rx="51.8846" ry="41.6538" fill="#FCDDB3"/>
<path d="M136.427 47.7145H132.189C132.132 46.9798 132.104 46.4429 132.104 46.1038C132.104 43.5043 133.248 41.3709 135.537 39.7038L137.487 38.3051C138.815 37.3444 139.479 36.1152 139.479 34.6176C139.479 33.4308 139.083 32.4277 138.292 31.6083C137.501 30.7606 136.371 30.3368 134.901 30.3368C133.404 30.3368 132.231 30.8171 131.384 31.7778C130.536 32.7386 130.112 33.8688 130.112 35.1686C130.112 35.9598 130.197 36.5956 130.366 37.0759L125.577 36.7368C125.407 36.1435 125.323 35.4936 125.323 34.7872C125.323 32.4701 126.17 30.4215 127.866 28.6414C129.561 26.833 131.906 25.9288 134.901 25.9288C137.897 25.9288 140.256 26.7623 141.98 28.4295C143.703 30.0966 144.565 32.0887 144.565 34.4057C144.565 37.3726 143.152 39.8592 140.327 41.8654L138.504 43.1369C137.091 44.1259 136.385 45.4681 136.385 47.1635C136.385 47.3613 136.399 47.5449 136.427 47.7145ZM132.146 56.0218C131.553 55.4002 131.256 54.6655 131.256 53.8178C131.256 52.9702 131.553 52.2355 132.146 51.6138C132.768 50.9922 133.503 50.6814 134.35 50.6814C135.198 50.6814 135.919 50.9922 136.512 51.6138C137.134 52.2355 137.445 52.9702 137.445 53.8178C137.445 54.6655 137.134 55.4002 136.512 56.0218C135.919 56.6152 135.198 56.9119 134.35 56.9119C133.474 56.9119 132.74 56.6152 132.146 56.0218Z" fill="#353535"/>
<circle cx="187.695" cy="82.7723" r="12.6185" fill="#FCDDB3"/>
<circle cx="208.692" cy="100.846" r="7.30769" fill="#FCDDB3"/>
</svg>
