<svg width="236" height="291" viewBox="0 0 236 291" fill="none" xmlns="http://www.w3.org/2000/svg">
<path d="M144.467 198.7L127.605 266.933C127.312 268.109 127.853 269.293 128.737 269.43C129.112 269.453 129.482 269.327 129.781 269.076C130.079 268.825 130.287 268.465 130.366 268.061L148.996 201.366C149.121 200.968 149.137 200.538 149.042 200.13C148.947 199.721 148.746 199.353 148.463 199.07L146.702 197.548C145.898 196.839 144.781 197.427 144.467 198.7Z" fill="#738CBA"/>
<path d="M194.329 198.337L207.063 267.65C207.282 268.842 206.676 269.986 205.785 270.066C205.409 270.061 205.047 269.908 204.765 269.635C204.482 269.361 204.297 268.986 204.243 268.576L189.632 200.657C189.53 200.25 189.538 199.82 189.657 199.419C189.775 199.018 189.997 198.664 190.296 198.401L192.145 197.016C193.014 196.372 194.088 197.04 194.329 198.337Z" fill="#738CBA"/>
<path d="M172.411 211.096L175.67 281.73C175.721 282.938 174.939 283.969 174.077 283.905C173.707 283.837 173.37 283.627 173.128 283.311C172.886 282.995 172.753 282.595 172.755 282.181L167.473 212.643C167.427 212.224 167.495 211.8 167.666 211.424C167.838 211.047 168.106 210.734 168.437 210.524L170.453 209.453C171.367 208.945 172.353 209.775 172.411 211.096Z" fill="#738CBA"/>
<path d="M217.643 175.927L235.834 282.937C236.149 284.773 235.338 286.529 234.125 286.634C233.175 286.715 232.291 285.74 232.006 284.314L211.309 177.146C210.631 174.397 213.024 175.251 214.684 173.849C215.824 172.882 217.3 173.93 217.643 175.927Z" fill="#E1B694"/>
<path d="M18.2567 175.927L0.0651805 282.937C-0.241664 284.773 0.569291 286.529 1.77475 286.634C2.72451 286.715 3.60851 285.74 3.89344 284.314L24.9053 176.78C25.5828 174.031 22.8686 175.251 21.2082 173.849C20.0758 172.882 18.6001 173.93 18.2567 175.927Z" fill="#E1B694"/>
<path d="M115.032 206.376C116.895 212.723 147.082 226.666 172.258 220.77C186.322 217.484 195.819 207.52 199.107 186.939C199.326 185.586 202.76 163.975 203.41 154.285C205.047 128.573 202.139 115.46 179.71 113.051C177.167 112.793 174.607 113.255 172.271 114.392C169.936 115.53 167.902 117.306 166.362 119.552C161.928 126.052 158.428 135.887 154.921 149.871C148.821 174.172 141.552 182.944 127.028 187.624C117.304 190.733 111.971 195.904 115.032 206.376Z" fill="#738CBA"/>
<path d="M115.031 206.376C116.829 212.506 145.058 225.708 169.672 221.302C171.38 220.991 172.973 220.154 174.267 218.885C180.711 212.554 185.956 204.056 189.295 192.819C195.315 172.593 199.845 154.671 200.02 140.833C200.203 126.769 192.334 115.412 177.233 113.446C175.988 113.291 174.727 113.415 173.525 113.809C172.324 114.204 171.207 114.861 170.242 115.742C161.964 123.346 158.706 132.915 152.233 158.844C146.987 180.809 135.831 184.418 127.028 187.592C117.362 191.071 111.97 195.904 115.031 206.376Z" fill="#93B3EE"/>
<path d="M53.2096 261.504L60.6615 272.732L54.7365 276.913L48.417 269.502L52.6763 260.408L53.2096 261.504Z" fill="#FFC3A3"/>
<path d="M115.981 265.104L116.836 272.491L106.98 275.27L103.948 266.377L115.981 265.104Z" fill="#FFC3A3"/>
<path d="M50.1628 265.427C51.2659 270.163 54.3563 274.327 57.2421 275.133C57.5283 275.658 57.6531 276.271 57.5978 276.88C57.5425 277.49 57.3101 278.064 56.9353 278.516C55.6056 280.127 54.2175 281.738 52.7636 283.349C52.4822 283.664 52.1467 283.914 51.7767 284.085C51.4067 284.256 51.0096 284.344 50.6084 284.344C50.2073 284.344 49.8102 284.256 49.4401 284.085C49.0701 283.914 48.7346 283.664 48.4532 283.349L30.7512 263.936C27.8289 260.763 30.9704 255.43 34.7548 257.098L34.8425 257.138C38.773 258.894 42.6378 260.827 46.5318 262.728C46.7217 262.873 50.1628 265.427 50.1628 265.427Z" fill="#2B3245"/>
<path d="M105.563 272.015C109.859 273.24 114.659 272.281 116.697 269.889C117.252 269.866 117.799 270.042 118.256 270.39C118.713 270.739 119.056 271.241 119.232 271.822C119.861 273.884 120.445 275.987 121.051 278.194C121.169 278.616 121.209 279.06 121.169 279.5C121.129 279.94 121.01 280.366 120.819 280.755C120.628 281.143 120.368 281.486 120.056 281.762C119.743 282.039 119.384 282.244 118.998 282.366L95.0134 290.042C91.0975 291.291 88.3724 285.709 91.5286 282.865L91.6016 282.793C94.9039 279.853 98.3157 277.066 101.691 274.239C101.866 274.094 105.563 272.015 105.563 272.015Z" fill="#2B3245"/>
<path d="M85.472 216.002C84.5003 218.088 61.582 247.907 50.4771 261.544C50.3233 261.741 50.2388 261.993 50.2388 262.253C50.2388 262.513 50.3233 262.765 50.4771 262.962L59.1564 274.537C59.2402 274.649 59.3436 274.742 59.4605 274.809C59.5773 274.877 59.7053 274.918 59.8367 274.93C59.9682 274.942 60.1005 274.925 60.2259 274.879C60.3512 274.834 60.467 274.761 60.5665 274.666C65.3664 270.066 89.7898 244.315 93.8591 240.335L92.7048 236.985" fill="#2B2F49"/>
<path d="M93.8304 240.335C97.0803 234.992 100.633 229.88 104.468 225.031C107.617 221.141 111.934 219.626 116.588 218.99C118.402 218.785 120.203 218.454 121.98 217.999C149.844 212.747 159.97 210.556 167.838 199.739C165.691 194.036 131.623 186.456 129.476 180.753C112.358 185.514 105.33 202.348 102.977 202.316L85.4434 216.01L93.8304 240.335Z" fill="#2B2F49"/>
<path d="M166.121 193.061C157.719 187.688 147.856 181.228 129.475 180.737C119.861 180.81 110.246 180.858 100.632 180.954C84.2958 181.116 77.1872 192.392 82.8712 209.147C83.6602 211.467 84.6026 213.722 85.472 216.01C88.2556 224.121 96.2627 246.707 97.4755 249.889C98.9001 254.23 103.101 265.563 104.694 269.543C104.841 269.905 105.092 270.204 105.41 270.392C105.727 270.58 106.092 270.647 106.447 270.582L115.273 269.027C115.487 268.988 115.693 268.902 115.878 268.775C116.062 268.647 116.222 268.48 116.347 268.283C116.472 268.087 116.561 267.865 116.607 267.63C116.653 267.395 116.657 267.153 116.617 266.917C114.22 253.223 107.353 218.442 104.818 210.452C113.957 210.017 132.397 209.324 132.989 209.453C136.372 210.178 152.423 209.944 154.118 209.735C163.579 208.551 171.067 202.671 177.825 195.284L178.329 193.279C173.01 192.336 169.372 193.633 166.121 193.061Z" fill="#353D63"/>
<path d="M93.1948 161.824C101.129 162.259 109.64 162.63 117.436 163.089C123.594 163.451 129.388 163.403 135.291 163.548C138.432 163.628 144.789 164.12 145.994 161.131C152.306 145.215 154.936 131.328 154.184 114.413C154.06 111.682 157.216 115.114 156.281 110.651C155.82 108.452 152.847 101.477 149.362 102.29C149.305 102.302 149.249 102.318 149.194 102.338C146.035 103.878 143.22 106.162 140.948 109.03C138.676 111.898 137.002 115.281 136.043 118.94C133.304 129.669 133.063 139.689 131.58 150.426C117.932 150.765 104.278 152.505 90.667 153.479C91.4779 156.258 92.2962 159.045 93.1948 161.824Z" fill="#B52F43"/>
<path d="M167.838 100.824C173.005 101.818 177.756 104.579 181.419 108.718C192.904 123.499 185.803 160.584 181.039 190.459C180.857 191.577 180.463 192.639 179.885 193.578C179.307 194.518 178.556 195.313 177.682 195.913C176.808 196.512 175.829 196.903 174.809 197.06C173.789 197.217 172.751 197.136 171.761 196.823C167.573 195.606 163.594 193.638 159.984 190.999C148.616 182.139 133.975 181.551 127.875 181.228C126.976 175.727 135.911 142.186 136.196 139.842C137.986 123.144 140.814 105.423 150.377 102.298C154.563 103.684 162.183 107.179 167.838 100.824Z" fill="#CE364C"/>
<path d="M125.15 157.627C120.876 157.692 116.763 157.426 112.533 157.861C111.994 157.907 111.482 158.142 111.072 158.53C109.45 160.093 108.116 161.986 107.141 164.104C107.039 164.329 106.937 164.563 106.842 164.804C106.789 164.952 106.778 165.114 106.809 165.27C106.84 165.425 106.912 165.567 107.016 165.677C107.12 165.787 107.251 165.861 107.393 165.889C107.535 165.917 107.681 165.899 107.813 165.835L111.247 163.685C112.387 162.968 115.397 162.549 116.464 163.387C117.698 164.353 119.072 165.239 120.16 165.964C121.49 166.835 123.067 167.123 124.58 166.77C125.372 166.61 126.137 166.322 126.852 165.916" fill="#FFC3A3"/>
<path d="M125.42 165.586C125.45 165.738 125.524 165.875 125.631 165.977C125.738 166.078 125.871 166.139 126.012 166.149C133.808 166.818 143.298 167.76 151.02 168.397C157.245 168.92 163.476 169.452 169.723 169.5C173.047 169.5 179.871 170.837 181.259 167.374C188.63 148.968 189.953 136.765 187.703 122.057C187.337 119.64 187.52 120.671 186.446 116.418C185.906 114.288 184.826 112.371 183.334 110.893C181.631 109.201 181.076 108.823 178.22 109.926C176.699 110.603 175.37 111.716 174.369 113.148C168.021 123.281 167.276 147.575 166.333 155.098C166.306 155.285 166.215 155.453 166.079 155.568C165.944 155.683 165.773 155.737 165.602 155.718C154.249 155.372 138.03 156.524 124.295 157.144C124.207 157.161 124.123 157.198 124.048 157.252C123.974 157.307 123.911 157.379 123.863 157.463C123.816 157.546 123.785 157.64 123.772 157.738C123.76 157.836 123.766 157.935 123.791 158.03C124.186 159.738 125.099 164.079 125.42 165.586Z" fill="#E83C56"/>
<path d="M219.571 169.678H14.27C13.4671 169.678 12.8162 170.395 12.8162 171.281V175.719C12.8162 176.604 13.4671 177.322 14.27 177.322H219.571C220.374 177.322 221.025 176.604 221.025 175.719V171.281C221.025 170.395 220.374 169.678 219.571 169.678Z" fill="#E1B694"/>
<path d="M144.723 166.729H83.8579C83.8579 168.397 85.8816 169.75 88.3802 169.75H140.2C142.699 169.75 144.723 168.397 144.723 166.729V166.729Z" fill="#9598AC"/>
<path d="M112.007 166.729H51.1421C51.1421 168.397 53.1658 169.75 55.6644 169.75H107.485C109.983 169.75 112.007 168.397 112.007 166.729Z" fill="#738CBA"/>
<path d="M112.007 166.729H51.1423L44.6912 123.837C44.4355 122.121 45.8163 120.615 47.6135 120.615H102.517C103.183 120.578 103.84 120.8 104.374 121.241C104.908 121.682 105.285 122.316 105.439 123.031L112.007 166.729Z" fill="#DDDDEA"/>
<path d="M79.8011 149.898C82.0047 147.886 82.0953 143.997 80.0035 141.212C77.9116 138.426 74.4294 137.798 72.2258 139.809C70.0222 141.82 69.9316 145.709 72.0235 148.495C74.1154 151.281 77.5975 151.909 79.8011 149.898Z" fill="white"/>
<path d="M151.356 98.2062C151.042 100.059 150.414 102.145 149.975 104.006C149.838 104.554 149.801 105.126 149.866 105.69C149.932 106.254 150.099 106.798 150.357 107.29C150.616 107.782 150.961 108.213 151.372 108.556C151.783 108.899 152.252 109.149 152.752 109.29C158.238 110.675 165.902 105.399 167.838 101.589V91.5528C164.39 96.3374 156.638 99.2614 151.356 98.2062Z" fill="#FFC3A3"/>
<path d="M175.188 82.4266C175.867 79.8732 174.084 77.4406 171.9 77.7789C171.563 77.8432 171.216 77.8128 170.892 77.6903C170.331 77.4345 169.838 77.0288 169.455 76.5099C169.072 75.991 168.813 75.3752 168.7 74.7181C168.006 71.2947 167.392 67.7666 166.107 64.6816C162.994 57.2469 152.693 55.7406 147.309 61.2019C147.052 61.4273 146.832 61.6998 146.658 62.0074C146.277 62.6303 145.954 63.2942 145.694 63.9889C144.445 67.3719 145.051 79.7685 145.592 88.347C145.741 90.1948 146.261 91.9828 147.114 93.582C147.967 95.1812 149.131 96.5515 150.523 97.5941C151.914 98.6285 153.586 99.1035 155.257 98.9392C156.946 98.8621 158.616 98.5092 160.211 97.8921C166.559 95.4756 167.743 93.5021 169.628 90.3527C169.992 89.7876 170.329 89.2015 170.636 88.5967C170.888 87.8993 171.283 87.2761 171.79 86.7763C173.617 86.1077 174.596 84.6739 175.195 82.4669L175.188 82.4266Z" fill="#FFC3A3"/>
<path d="M142.144 61.3307C141.879 61.8178 141.712 62.3609 141.651 62.9245C141.591 63.4881 141.639 64.0594 141.793 64.601C142.032 65.4714 142.522 66.2321 143.188 66.7678C145.811 68.3788 147.974 68.9185 149.457 66.5342L149.53 66.4214C149.855 65.9049 150.278 65.472 150.77 65.1525C151.261 64.8329 151.809 64.6342 152.377 64.5699C152.944 64.5057 153.518 64.5774 154.058 64.7802C154.598 64.983 155.092 65.312 155.506 65.7448C156.697 66.945 158.158 67.9277 159.692 67.8633H159.824C163.016 67.6458 163.016 67.6458 166.399 71.7619C167.36 73.0637 167.983 74.6279 168.203 76.2887C168.41 78.3863 168.147 80.5078 167.436 82.4669C167.342 82.7225 167.295 82.9964 167.298 83.2724C167.287 83.424 167.321 83.5754 167.395 83.7041C167.468 83.8328 167.577 83.932 167.706 83.9871C167.834 84.0422 167.976 84.0502 168.109 84.01C168.242 83.9698 168.359 83.8834 168.445 83.7637C169.95 82.0641 172.572 77.215 174.362 79.3416C175.758 82.1205 174.596 85.27 171.44 86.9696C170.351 87.5495 169.073 90.2208 168.445 91.3002C168.074 91.942 167.844 92.67 167.772 93.4267C167.875 94.941 173.683 90.3043 175.487 87.904C175.846 87.4233 176.162 86.9054 176.43 86.3574C177.27 84.6337 176.656 83.8845 177.233 82.0239C177.782 80.6017 178.136 79.098 178.285 77.5614C178.57 73.0668 177.833 70.8839 176.963 69.587C176.349 68.6377 175.903 67.5692 175.648 66.4375C175.473 65.7126 175.261 64.9635 175.02 64.2385C174.521 62.6974 173.732 61.2896 172.706 60.1071C171.68 58.9246 170.44 57.9939 169.066 57.3757C167.425 56.7416 165.688 56.4679 163.951 56.5702C161.784 56.5813 159.632 56.1808 157.588 55.3862C155.946 54.7525 154.266 54.2412 152.562 53.8557C151.294 53.5607 149.991 53.4981 148.704 53.6704C147.48 53.7409 146.314 54.2661 145.395 55.1606C144.708 55.8292 144.474 57.1019 143.853 58.5517C143.335 59.5152 142.764 60.4432 142.144 61.3307Z" fill="#744C34"/>
<path d="M151.4 98.174H151.363C151.268 98.617 151.202 99.4679 151.092 99.8948C152.119 100.172 153.17 100.321 154.226 100.338C156.56 100.333 158.872 99.8356 161.035 98.8718C163.434 97.7395 165.705 95.9251 167.838 94.2673C167.838 94.0015 167.838 93.4135 167.838 93.1396C165.208 95.8622 162.49 96.998 159.107 98.3109C157.859 98.6979 156.575 98.9222 155.279 98.9795C153.944 99.0891 152.607 98.8114 151.4 98.174Z" fill="#F59F75"/>
<path d="M164.122 76.8053C164.756 76.9781 163.805 75.3724 161.593 75.0741L161.427 75.048C160.698 74.9437 159.958 75.0019 159.25 75.219C158.689 75.3914 158.382 75.4246 158.376 75.6433C161.977 75.2972 162.804 75.9232 164.122 76.8053Z" fill="#7E5439" stroke="#7E5439" stroke-width="0.126288"/>
<path d="M161.002 80.1072C160.416 80.0152 160.015 79.2363 160.108 78.3397C160.202 77.4432 160.763 76.8152 161.349 76.9071C161.934 76.999 162.336 77.778 162.242 78.6745C162.148 79.5711 161.597 80.1843 161.002 80.1072Z" fill="#342525"/>
<path d="M147.559 73.6207C146.996 73.5812 148.327 72.3661 150.441 72.7955L150.614 72.8227C151.339 72.9595 152.031 73.2563 152.649 73.6953C153.135 74.0481 153.42 74.1824 153.363 74.3931C150.06 72.8823 149.088 73.2098 147.559 73.6207Z" fill="#7E5439" stroke="#7E5439" stroke-width="0.126288"/>
<path d="M150.179 77.8557C149.585 77.8275 149.129 77.0726 149.156 76.1738C149.183 75.2749 149.696 74.5661 150.289 74.6022C150.882 74.6383 151.339 75.3853 151.311 76.2841C151.284 77.1829 150.773 77.8838 150.179 77.8557Z" fill="#342525"/>
<path d="M152.223 89.8599C151.632 89.8648 152.947 91.2264 155.192 90.8708L155.365 90.8411C156.139 90.7222 156.883 90.4352 157.555 89.9969C158.087 89.6492 158.357 89.5043 158.345 89.3073C156.925 89.9061 155.754 91.0323 152.223 89.8599Z" fill="#7E5439" stroke="#7E5439" stroke-width="0.126288"/>
<path d="M154.021 83.5355C153.787 84.0927 153.302 85.0498 153.827 85.6692C154.592 86.6029 155.629 86.2856 156.64 86.1107C156.769 86.3749 156.542 86.5265 156.382 86.5665C155.843 86.7285 155.284 86.7945 154.726 86.7623C154.477 86.7488 154.234 86.6718 154.017 86.5371C153.745 86.3784 153.509 86.1527 153.328 85.8774C153.148 85.6022 153.027 85.2848 152.975 84.9498C152.99 84.5174 153.103 84.0959 153.303 83.7239C154.438 80.8897 155.235 77.9053 155.674 74.8452C155.738 74.7494 155.455 77.4551 155.424 77.8082C155.247 79.7898 154.773 81.7252 154.021 83.5355V83.5355Z" fill="#7E5439"/>
<ellipse cx="82.9892" cy="22.8626" rx="28.478" ry="22.8626" fill="#FCDDB3"/>
<path d="M83.8354 26.1366H81.5091C81.4781 25.7333 81.4626 25.4387 81.4626 25.2526C81.4626 23.8257 82.0907 22.6548 83.3469 21.7397L84.417 20.972C85.146 20.4447 85.5104 19.7701 85.5104 18.9481C85.5104 18.2967 85.2933 17.7461 84.8591 17.2964C84.4248 16.8311 83.8044 16.5985 82.998 16.5985C82.176 16.5985 81.5323 16.8621 81.0671 17.3894C80.6018 17.9167 80.3692 18.5371 80.3692 19.2505C80.3692 19.6848 80.4157 20.0337 80.5087 20.2974L77.8799 20.1113C77.7869 19.7856 77.7404 19.4289 77.7404 19.0412C77.7404 17.7694 78.2056 16.645 79.1362 15.6679C80.0667 14.6753 81.354 14.179 82.998 14.179C84.6419 14.179 85.9369 14.6366 86.883 15.5516C87.829 16.4666 88.3021 17.56 88.3021 18.8318C88.3021 20.4602 87.5266 21.825 85.9757 22.9262L84.9754 23.6241C84.1999 24.1669 83.8122 24.9036 83.8122 25.8342C83.8122 25.9427 83.8199 26.0435 83.8354 26.1366ZM81.4858 30.6963C81.1601 30.3551 80.9973 29.9518 80.9973 29.4866C80.9973 29.0213 81.1601 28.618 81.4858 28.2768C81.827 27.9356 82.2303 27.765 82.6955 27.765C83.1608 27.765 83.5563 27.9356 83.882 28.2768C84.2232 28.618 84.3938 29.0213 84.3938 29.4866C84.3938 29.9518 84.2232 30.3551 83.882 30.6963C83.5563 31.022 83.1608 31.1848 82.6955 31.1848C82.2147 31.1848 81.8115 31.022 81.4858 30.6963Z" fill="#353535"/>
<circle cx="111.976" cy="45.4314" r="6.92594" fill="#FCDDB3"/>
<circle cx="123.5" cy="55.3516" r="4.01098" fill="#FCDDB3"/>
</svg>
