<svg width="537" height="392" viewBox="0 0 537 392" fill="none" xmlns="http://www.w3.org/2000/svg">
<path d="M531.767 324.245C531.607 323.913 531.435 323.581 531.275 323.238C482.367 266.648 535.935 234.305 524.841 170.857C519.437 139.946 500.078 113.248 472.864 97.6662C449.131 84.0653 434.66 77.4366 413.011 74.6889C392.806 72.1149 373.963 63.1167 359.26 49.0212C326.345 17.4459 301.822 -5.58863 244.854 1.18894C174.274 9.58076 168.778 78.9592 123.9 86.2405C79.0212 93.5218 44.9044 131.714 54.7273 162.065C64.5502 192.415 62.6497 224.001 34.0282 261.015C18.8703 280.569 4.8343 286.282 0.850191 309.419C-1.45676 323.246 0.963177 337.447 7.71935 349.73C14.7671 362.479 25.1077 373.102 37.6618 380.49C50.2158 387.879 64.523 391.762 79.0899 391.735H488.881C523.582 391.735 546.811 355.512 531.767 324.245Z" fill="#F5F8FF"/>
</svg>
